<svg version="1.1" viewBox="0.0 0.0 912.0 412.8005249343832" fill="none" stroke="none" stroke-linecap="square" stroke-miterlimit="10" xmlns:xlink="http://www.w3.org/1999/xlink" xmlns="http://www.w3.org/2000/svg"><clipPath id="p.0"><path d="m0 0l912.0 0l0 412.80054l-912.0 0l0 -412.80054z" clip-rule="nonzero"/></clipPath><g clip-path="url(#p.0)"><path fill="#000000" fill-opacity="0.0" d="m0 0l912.0 0l0 412.80054l-912.0 0z" fill-rule="evenodd"/><path fill="#efefef" d="m415.5118 39.351707l293.40158 0l0 -35.362206l70.72443 70.72441l-70.72443 70.72441l0 -35.362206l-293.40158 0z" fill-rule="evenodd"/><path stroke="#202729" stroke-width="1.0" stroke-linejoin="round" stroke-linecap="butt" d="m415.5118 39.351707l293.40158 0l0 -35.362206l70.72443 70.72441l-70.72443 70.72441l0 -35.362206l-293.40158 0z" fill-rule="evenodd"/><path fill="#000000" d="m433.6837 69.03516q-3.65625 0 -6.015625 -2.328125q-2.34375 -2.328125 -2.34375 -5.937496q0 -3.609375 2.34375 -5.9375q2.359375 -2.34375 6.015625 -2.34375q3.671875 0 6.015625 2.34375q2.359375 2.328125 2.359375 5.9375q0 3.5937462 -2.359375 5.937496q-2.34375 2.328125 -6.015625 2.328125zm0 -3.015625q2.109375 0 3.484375 -1.453125q1.390625 -1.4531212 1.390625 -3.7968712q0 -2.28125 -1.34375 -3.765625q-1.328125 -1.5 -3.53125 -1.5q-2.21875 0 -3.546875 1.5q-1.3125 1.484375 -1.3125 3.765625q0 2.296875 1.34375 3.7812462q1.359375 1.46875 3.515625 1.46875zm17.328705 3.015625q-2.234375 0 -3.578125 -1.765625l0 5.90625l-3.046875 0l0 -16.015621l3.046875 0l0 1.46875q1.390625 -1.75 3.578125 -1.75q2.296875 0 3.703125 1.625q1.421875 1.609375 1.421875 4.4375q0 2.7812462 -1.40625 4.437496q-1.390625 1.65625 -3.71875 1.65625zm-0.96875 -2.703125q1.328125 0 2.125 -0.9375q0.8125 -0.9375 0.8125 -2.4531212q0 -1.5 -0.8125 -2.421875q-0.796875 -0.9375 -2.125 -0.9375q-0.734375 0 -1.484375 0.390625q-0.75 0.375 -1.125 0.9375l0 4.093746q0.375 0.5625 1.125 0.953125q0.75 0.375 1.484375 0.375zm13.773193 2.703125q-2.734375 0 -4.46875 -1.6875q-1.71875 -1.6875 -1.71875 -4.406246q0 -2.59375 1.71875 -4.328125q1.71875 -1.734375 4.28125 -1.734375q2.578125 0 4.1875 1.765625q1.625 1.75 1.625 4.609375l0 0.671875l-8.625 0q0.15625 1.1093712 1.0 1.9062462q0.859375 0.78125 2.34375 0.78125q0.71875 0 1.609375 -0.296875q0.890625 -0.296875 1.484375 -0.84375l1.34375 1.96875q-0.859375 0.78125 -2.140625 1.1875q-1.265625 0.40625 -2.640625 0.40625zm2.671875 -7.171871q-0.078125 -1.15625 -0.875 -1.859375q-0.78125 -0.703125 -1.984375 -0.703125q-1.203125 0 -1.96875 0.734375q-0.765625 0.734375 -0.890625 1.828125l5.71875 0zm12.990723 6.890621l0 -7.015621q0 -2.15625 -2.140625 -2.15625q-1.65625 0 -2.640625 1.375l0 7.796871l-3.046875 0l0 -11.593746l3.046875 0l0 1.515625q0.546875 -0.671875 1.578125 -1.234375q1.03125 -0.5625 2.46875 -0.5625q1.921875 0 2.84375 1.0q0.9375 0.984375 0.9375 2.6875l0 8.187496l-3.046875 0zm17.508698 -2.421875q0.75 0 1.484375 -0.375q0.75 -0.390625 1.140625 -0.953125l0 -4.093746q-0.390625 -0.5625 -1.140625 -0.9375q-0.734375 -0.390625 -1.484375 -0.390625q-1.3125 0 -2.125 0.953125q-0.796875 0.953125 -0.796875 2.40625q0 1.5156212 0.8125 2.4531212q0.8125 0.9375 2.109375 0.9375zm-0.953125 2.703125q-2.328125 0 -3.734375 -1.640625q-1.40625 -1.640625 -1.40625 -4.453121q0 -2.828125 1.40625 -4.4375q1.421875 -1.625 3.734375 -1.625q2.1875 0 3.578125 1.75l0 -1.46875l3.0625 0l0 16.015621l-3.0625 0l0 -5.90625q-1.34375 1.765625 -3.578125 1.765625zm17.476349 -0.28125l0 -1.46875q-1.5625305 1.75 -4.0937805 1.75q-1.90625 0 -2.828125 -0.96875q-0.90625 -0.96875 -0.90625 -2.671875l0 -8.234371l3.046875 0l0 7.031246q0 2.140625 2.140625 2.140625q1.5469055 0 2.6406555 -1.328125l0 -7.843746l3.046875 0l0 11.593746l-3.046875 0zm11.50531 0.28125q-2.734375 0 -4.46875 -1.6875q-1.71875 -1.6875 -1.71875 -4.406246q0 -2.59375 1.71875 -4.328125q1.71875 -1.734375 4.28125 -1.734375q2.578125 0 4.1875 1.765625q1.625 1.75 1.625 4.609375l0 0.671875l-8.625 0q0.15625 1.1093712 1.0 1.9062462q0.859375 0.78125 2.34375 0.78125q0.71875 0 1.609375 -0.296875q0.890625 -0.296875 1.484375 -0.84375l1.34375 1.96875q-0.859375 0.78125 -2.140625 1.1875q-1.265625 0.40625 -2.640625 0.40625zm2.671875 -7.171871q-0.078125 -1.15625 -0.875 -1.859375q-0.78125 -0.703125 -1.984375 -0.703125q-1.203125 0 -1.96875 0.734375q-0.765625 0.734375 -0.890625 1.828125l5.71875 0zm5.1625977 6.890621l0 -11.593746l3.046875 0l0 1.578125q0.625 -0.765625 1.609375 -1.3125q1.0 -0.546875 2.078125 -0.546875l0 2.96875l-0.828125 -0.0625q-0.828125 0 -1.65625 0.390625q-0.828125 0.375 -1.203125 0.921875l0 7.656246l-3.046875 0zm8.686829 1.796875q0.375 0.1875 0.953125 0.1875q1.234375 0 1.609375 -0.828125l0.4375 -0.984375l-4.703125 -11.765621l3.265625 0l3.015625 8.062496l3.03125 -8.062496l3.28125 0l-5.4375 13.484371q-0.65625 1.640625 -1.78125 2.21875q-1.125 0.578125 -2.625 0.59375q-0.828125 0 -1.5 -0.171875l0.453125 -2.734375zm25.362183 -1.796875l0 -1.203125q-1.265625 1.484375 -3.671875 1.484375q-1.671875 0 -2.859375 -1.0625q-1.171875 -1.0625 -1.171875 -2.765625q0 -1.7031212 1.109375 -2.7187462q1.125 -1.03125 2.921875 -1.03125q2.5 0 3.671875 1.421875l0 -1.5625q0 -0.890625 -0.703125 -1.421875q-0.6875 -0.53125 -1.84375 -0.53125q-1.90625 0 -3.375 1.375l-1.15625 -2.046875q2.109375 -1.8125 5.0625 -1.8125q2.453125 0 3.75 1.140625q1.3125 1.140625 1.3125 3.25l0 7.484371l-3.046875 0zm-2.4375 -1.78125q1.671875 0 2.4375 -1.0l0 -1.4375q-0.765625 -1.0156212 -2.4375 -1.0156212q-0.921875 0 -1.5625 0.46875q-0.625 0.4531212 -0.625 1.2812462q0 0.828125 0.625 1.265625q0.640625 0.4375 1.5625 0.4375zm13.906982 2.0625q-2.734375 0 -4.4375 -1.71875q-1.703125 -1.734375 -1.703125 -4.374996q0 -2.609375 1.703125 -4.328125q1.703125 -1.734375 4.4375 -1.734375q1.78125 0 2.890625 0.65625q1.125 0.640625 1.703125 1.421875l-2.0 1.875q-0.84375 -1.25 -2.4375 -1.25q-1.40625 0 -2.28125 0.9375q-0.875 0.921875 -0.875 2.421875q0 1.5156212 0.875 2.4531212q0.875 0.9375 2.28125 0.9375q1.546875 0 2.4375 -1.25l2.0 1.84375q-0.578125 0.8125 -1.703125 1.46875q-1.109375 0.640625 -2.890625 0.640625zm11.975952 0q-2.734375 0 -4.4375 -1.71875q-1.703125 -1.734375 -1.703125 -4.374996q0 -2.609375 1.703125 -4.328125q1.703125 -1.734375 4.4375 -1.734375q1.78125 0 2.890625 0.65625q1.125 0.640625 1.703125 1.421875l-2.0 1.875q-0.84375 -1.25 -2.4375 -1.25q-1.40625 0 -2.28125 0.9375q-0.875 0.921875 -0.875 2.421875q0 1.5156212 0.875 2.4531212q0.875 0.9375 2.28125 0.9375q1.546875 0 2.4375 -1.25l2.0 1.84375q-0.578125 0.8125 -1.703125 1.46875q-1.109375 0.640625 -2.890625 0.640625zm12.022888 0q-2.734375 0 -4.46875 -1.6875q-1.71875 -1.6875 -1.71875 -4.406246q0 -2.59375 1.71875 -4.328125q1.71875 -1.734375 4.28125 -1.734375q2.578125 0 4.1875 1.765625q1.625 1.75 1.625 4.609375l0 0.671875l-8.625 0q0.15625 1.1093712 1.0 1.9062462q0.859375 0.78125 2.34375 0.78125q0.71875 0 1.609375 -0.296875q0.890625 -0.296875 1.484375 -0.84375l1.34375 1.96875q-0.859375 0.78125 -2.140625 1.1875q-1.265625 0.40625 -2.640625 0.40625zm2.671875 -7.171871q-0.078125 -1.15625 -0.875 -1.859375q-0.78125 -0.703125 -1.984375 -0.703125q-1.203125 0 -1.96875 0.734375q-0.765625 0.734375 -0.890625 1.828125l5.71875 0zm9.334412 7.171871q-1.515625 0 -2.890625 -0.46875q-1.375 -0.484375 -2.296875 -1.328125l1.328125 -2.125q0.6875 0.640625 1.84375 1.109375q1.15625 0.46875 2.15625 0.46875q1.953125 0 1.953125 -1.25q0 -0.484375 -0.515625 -0.71875q-0.515625 -0.234375 -1.265625 -0.40625l-1.65625 -0.3437462q-3.453125 -0.734375 -3.453125 -3.453125q0 -1.609375 1.328125 -2.625q1.328125 -1.015625 3.421875 -1.015625q2.71875 0 4.671875 1.578125l-1.21875 2.09375q-0.53125 -0.5625 -1.4375 -0.953125q-0.90625 -0.390625 -2.0 -0.390625q-0.828125 0 -1.328125 0.34375q-0.484375 0.328125 -0.484375 0.796875q0 0.4375 0.5 0.65625q0.5 0.21875 1.265625 0.375q0.78125 0.15625 1.65625 0.359375q0.890625 0.203125 1.65625 0.609375q0.78125 0.40625 1.28125 1.109375q0.5 0.6874962 0.5 1.8593712q0 1.6875 -1.375 2.703125q-1.359375 1.015625 -3.640625 1.015625zm11.447998 0q-1.515625 0 -2.890625 -0.46875q-1.375 -0.484375 -2.296875 -1.328125l1.328125 -2.125q0.6875 0.640625 1.84375 1.109375q1.15625 0.46875 2.15625 0.46875q1.953125 0 1.953125 -1.25q0 -0.484375 -0.515625 -0.71875q-0.515625 -0.234375 -1.265625 -0.40625l-1.65625 -0.3437462q-3.453125 -0.734375 -3.453125 -3.453125q0 -1.609375 1.328125 -2.625q1.328125 -1.015625 3.421875 -1.015625q2.71875 0 4.671875 1.578125l-1.21875 2.09375q-0.53125 -0.5625 -1.4375 -0.953125q-0.90625 -0.390625 -2.0 -0.390625q-0.828125 0 -1.328125 0.34375q-0.484375 0.328125 -0.484375 0.796875q0 0.4375 0.5 0.65625q0.5 0.21875 1.265625 0.375q0.78125 0.15625 1.65625 0.359375q0.890625 0.203125 1.65625 0.609375q0.78125 0.40625 1.28125 1.109375q0.5 0.6874962 0.5 1.8593712q0 1.6875 -1.375 2.703125q-1.359375 1.015625 -3.640625 1.015625z" fill-rule="nonzero"/><path fill="#000000" d="m642.66583 68.75391l-4.8125 -11.593746l1.9375 0l3.859375 9.499996l3.84375 -9.499996l1.96875 0l-4.828125 11.593746l-1.96875 0zm9.556824 -13.249996q-0.484375 0 -0.84375 -0.34375q-0.359375 -0.34375 -0.359375 -0.859375q0 -0.5 0.359375 -0.859375q0.359375 -0.359375 0.84375 -0.359375q0.5 0 0.859375 0.359375q0.359375 0.359375 0.359375 0.859375q0 0.515625 -0.359375 0.859375q-0.359375 0.34375 -0.859375 0.34375zm-0.890625 13.249996l0 -11.593746l1.796875 0l0 11.593746l-1.796875 0zm12.649963 0l0 -1.3125q-1.46875 1.59375 -3.84375 1.59375q-1.75 0 -2.90625 -1.09375q-1.140625 -1.109375 -1.140625 -2.734375q0 -1.6874962 1.140625 -2.7499962q1.140625 -1.078125 2.90625 -1.078125q2.5 0 3.84375 1.59375l0 -2.09375q0 -1.171875 -0.828125 -1.796875q-0.828125 -0.640625 -2.09375 -0.640625q-2.046875 0 -3.5625 1.59375l-0.828125 -1.234375q1.84375 -1.921875 4.625 -1.921875q2.140625 0 3.3125 1.03125q1.171875 1.03125 1.171875 2.875l0 7.968746l-1.796875 0zm-3.1875 -1.015625q2.125 0 3.1875 -1.4375l0 -2.171875q-1.0625 -1.4531212 -3.1875 -1.4531212q-1.28125 0 -2.078125 0.71875q-0.78125 0.7031212 -0.78125 1.8281212q0 1.109375 0.78125 1.8125q0.796875 0.703125 2.078125 0.703125z" fill-rule="nonzero"/><path fill="#000000" d="m434.71494 97.753914l0 -1.734375q-0.65625 0.890625 -1.671875 1.453125q-1.015625 0.5625 -2.25 0.5625q-2.328125 0 -3.75 -1.65625q-1.40625 -1.65625 -1.40625 -4.40625q0 -2.78125 1.421875 -4.4375q1.4375 -1.65625 3.734375 -1.65625q1.1875 0 2.203125 0.546875q1.015625 0.53125 1.71875 1.484375l0 -6.171875l1.796875 0l0 16.015625l-1.796875 0zm-3.484375 -1.3125q1.078125 0 2.03125 -0.53125q0.96875 -0.53125 1.453125 -1.296875l0 -5.265625q-0.484375 -0.765625 -1.453125 -1.3125q-0.953125 -0.546875 -2.03125 -0.546875q-1.671875 0 -2.703125 1.21875q-1.015625 1.21875 -1.015625 3.265625q0 1.984375 1.0 3.234375q1.015625 1.234375 2.71875 1.234375zm9.768707 -11.9375q-0.484375 0 -0.84375 -0.34375q-0.359375 -0.34375 -0.359375 -0.859375q0 -0.5 0.359375 -0.859375q0.359375 -0.359375 0.84375 -0.359375q0.5 0 0.859375 0.359375q0.359375 0.359375 0.359375 0.859375q0 0.515625 -0.359375 0.859375q-0.359375 0.34375 -0.859375 0.34375zm-0.890625 13.25l0 -11.59375l1.796875 0l0 11.59375l-1.796875 0zm5.899994 0l0 -10.015625l-1.90625 0l0 -1.578125l1.90625 0l0 -0.890625q0 -1.796875 0.90625 -2.78125q0.90625 -0.984375 2.453125 -0.984375q1.46875 0 2.453125 0.890625l-0.734375 1.171875q-0.625 -0.578125 -1.453125 -0.578125q-1.8125 0 -1.8125 2.28125l0 0.890625l2.34375 0l0 1.578125l-2.34375 0l0 10.015625l-1.8125 0zm7.0 0l0 -10.015625l-1.90625 0l0 -1.578125l1.90625 0l0 -0.890625q0 -1.796875 0.90625 -2.78125q0.90625 -0.984375 2.453125 -0.984375q1.46875 0 2.453125 0.890625l-0.734375 1.171875q-0.625 -0.578125 -1.453125 -0.578125q-1.8125 0 -1.8125 2.28125l0 0.890625l2.34375 0l0 1.578125l-2.34375 0l0 10.015625l-1.8125 0zm11.342316 0.28125q-2.609375 0 -4.265625 -1.703125q-1.640625 -1.703125 -1.640625 -4.390625q0 -2.5625 1.625 -4.3125q1.640625 -1.75 4.09375 -1.75q2.5 0 4.03125 1.734375q1.53125 1.71875 1.53125 4.484375l0 0.453125l-9.375 0q0.09375 1.765625 1.28125 2.890625q1.1875 1.109375 2.890625 1.109375q2.109375 0 3.578125 -1.453125l0.859375 1.171875q-1.78125 1.765625 -4.609375 1.765625zm3.59375 -6.8125q0 -1.609375 -1.0625 -2.734375q-1.046875 -1.125 -2.75 -1.125q-1.609375 0 -2.671875 1.125q-1.0625 1.125 -1.109375 2.734375l7.59375 0zm4.683838 6.53125l0 -11.59375l1.796875 0l0 1.875q1.609375 -2.109375 3.875 -2.109375l0 1.84375l-0.71875 -0.078125q-0.828125 0 -1.8125 0.59375q-0.984375 0.59375 -1.34375 1.265625l0 8.203125l-1.796875 0zm13.154358 0.28125q-2.609375 0 -4.265625 -1.703125q-1.640625 -1.703125 -1.640625 -4.390625q0 -2.5625 1.625 -4.3125q1.640625 -1.75 4.09375 -1.75q2.5 0 4.03125 1.734375q1.53125 1.71875 1.53125 4.484375l0 0.453125l-9.375 0q0.09375 1.765625 1.28125 2.890625q1.1875 1.109375 2.890625 1.109375q2.109375 0 3.578125 -1.453125l0.859375 1.171875q-1.78125 1.765625 -4.609375 1.765625zm3.59375 -6.8125q0 -1.609375 -1.0625 -2.734375q-1.046875 -1.125 -2.75 -1.125q-1.609375 0 -2.671875 1.125q-1.0625 1.125 -1.109375 2.734375l7.59375 0zm12.511963 6.53125l0 -7.578125q0 -1.546875 -0.71875 -2.109375q-0.703125 -0.578125 -1.875 -0.578125q-1.0 0 -1.984375 0.546875q-0.96875 0.53125 -1.453125 1.25l0 8.46875l-1.796875 0l0 -11.59375l1.796875 0l0 1.6875q0.75 -0.875 1.84375 -1.421875q1.09375 -0.546875 2.296875 -0.546875q3.6875 0 3.6875 3.734375l0 8.140625l-1.796875 0zm8.3333435 0.28125q-2.578125 0 -2.578125 -2.703125l0 -7.59375l-1.921875 0l0 -1.578125l1.921875 0l0 -3.171875l1.796875 0l0 3.171875l2.359375 0l0 1.578125l-2.359375 0l0 7.203125q0 0.65625 0.28125 1.078125q0.296875 0.421875 0.90625 0.421875q0.734375 0 1.21875 -0.484375l0.5312805 1.34375q-0.7500305 0.734375 -2.1562805 0.734375zm5.0091248 -13.53125q-0.484375 0 -0.84375 -0.34375q-0.359375 -0.34375 -0.359375 -0.859375q0 -0.5 0.359375 -0.859375q0.359375 -0.359375 0.84375 -0.359375q0.5 0 0.859375 0.359375q0.359375 0.359375 0.359375 0.859375q0 0.515625 -0.359375 0.859375q-0.359375 0.34375 -0.859375 0.34375zm-0.890625 13.25l0 -11.59375l1.796875 0l0 11.59375l-1.796875 0zm12.649963 0l0 -1.3125q-1.46875 1.59375 -3.84375 1.59375q-1.75 0 -2.90625 -1.09375q-1.140625 -1.109375 -1.140625 -2.734375q0 -1.6875 1.140625 -2.75q1.140625 -1.078125 2.90625 -1.078125q2.5 0 3.84375 1.59375l0 -2.09375q0 -1.171875 -0.828125 -1.796875q-0.828125 -0.640625 -2.09375 -0.640625q-2.046875 0 -3.5625 1.59375l-0.828125 -1.234375q1.84375 -1.921875 4.625 -1.921875q2.140625 0 3.3125 1.03125q1.171875 1.03125 1.171875 2.875l0 7.96875l-1.796875 0zm-3.1875 -1.015625q2.125 0 3.1875 -1.4375l0 -2.171875q-1.0625 -1.453125 -3.1875 -1.453125q-1.28125 0 -2.078125 0.71875q-0.78125 0.703125 -0.78125 1.828125q0 1.109375 0.78125 1.8125q0.796875 0.703125 2.078125 0.703125zm8.585449 1.015625l0 -16.015625l1.796875 0l0 16.015625l-1.796875 0zm5.4000244 0l0 -16.015625l1.796875 0l0 16.015625l-1.796875 0zm5.0405884 2.90625q0.390625 0.1875 0.984375 0.1875q0.609375 0 1.015625 -0.25q0.40625 -0.25 0.71875 -0.96875l0.765625 -1.75l-4.84375 -11.71875l1.9375 0l3.859375 9.5l3.84375 -9.5l1.96875 0l-5.8125 13.953125q-0.953125 2.296875 -3.40625 2.34375q-0.6875 0 -1.3125 -0.171875l0.28125 -1.625zm24.03009 -2.625q-2.46875 0 -3.921875 -2.03125l0 6.171875l-1.796875 0l0 -16.015625l1.796875 0l0 1.734375q0.625 -0.890625 1.65625 -1.453125q1.03125 -0.5625 2.265625 -0.5625q2.328125 0 3.734375 1.640625q1.421875 1.625 1.421875 4.421875q0 2.78125 -1.40625 4.4375q-1.40625 1.65625 -3.75 1.65625zm-0.453125 -1.59375q1.671875 0 2.6875 -1.21875q1.03125 -1.234375 1.03125 -3.28125q0 -1.984375 -1.015625 -3.21875q-1.0 -1.234375 -2.703125 -1.234375q-1.09375 0 -2.046875 0.546875q-0.9375 0.53125 -1.421875 1.296875l0 5.234375q0.484375 0.765625 1.421875 1.328125q0.953125 0.546875 2.046875 0.546875zm8.462341 1.3125l0 -11.59375l1.796875 0l0 1.875q1.609375 -2.109375 3.875 -2.109375l0 1.84375l-0.71875 -0.078125q-0.828125 0 -1.8125 0.59375q-0.984375 0.59375 -1.34375 1.265625l0 8.203125l-1.796875 0zm8.810608 -13.25q-0.484375 0 -0.84375 -0.34375q-0.359375 -0.34375 -0.359375 -0.859375q0 -0.5 0.359375 -0.859375q0.359375 -0.359375 0.84375 -0.359375q0.5 0 0.859375 0.359375q0.359375 0.359375 0.359375 0.859375q0 0.515625 -0.359375 0.859375q-0.359375 0.34375 -0.859375 0.34375zm-0.890625 13.25l0 -11.59375l1.796875 0l0 11.59375l-1.796875 0zm8.493713 0l-4.8125 -11.59375l1.9375 0l3.859375 9.5l3.84375 -9.5l1.96875 0l-4.828125 11.59375l-1.96875 0zm15.916199 0l0 -1.3125q-1.46875 1.59375 -3.84375 1.59375q-1.75 0 -2.90625 -1.09375q-1.140625 -1.109375 -1.140625 -2.734375q0 -1.6875 1.140625 -2.75q1.140625 -1.078125 2.90625 -1.078125q2.5 0 3.84375 1.59375l0 -2.09375q0 -1.171875 -0.828125 -1.796875q-0.828125 -0.640625 -2.09375 -0.640625q-2.046875 0 -3.5625 1.59375l-0.828125 -1.234375q1.84375 -1.921875 4.625 -1.921875q2.140625 0 3.3125 1.03125q1.171875 1.03125 1.171875 2.875l0 7.96875l-1.796875 0zm-3.1875 -1.015625q2.125 0 3.1875 -1.4375l0 -2.171875q-1.0625 -1.453125 -3.1875 -1.453125q-1.28125 0 -2.078125 0.71875q-0.78125 0.703125 -0.78125 1.828125q0 1.109375 0.78125 1.8125q0.796875 0.703125 2.078125 0.703125zm11.522949 1.296875q-2.578125 0 -2.578125 -2.703125l0 -7.59375l-1.921875 0l0 -1.578125l1.921875 0l0 -3.171875l1.796875 0l0 3.171875l2.359375 0l0 1.578125l-2.359375 0l0 7.203125q0 0.65625 0.28125 1.078125q0.296875 0.421875 0.90625 0.421875q0.734375 0 1.21875 -0.484375l0.53125 1.34375q-0.75 0.734375 -2.15625 0.734375zm9.352905 0q-2.609375 0 -4.265625 -1.703125q-1.640625 -1.703125 -1.640625 -4.390625q0 -2.5625 1.625 -4.3125q1.640625 -1.75 4.09375 -1.75q2.5 0 4.03125 1.734375q1.53125 1.71875 1.53125 4.484375l0 0.453125l-9.375 0q0.09375 1.765625 1.28125 2.890625q1.1875 1.109375 2.890625 1.109375q2.109375 0 3.578125 -1.453125l0.859375 1.171875q-1.78125 1.765625 -4.609375 1.765625zm3.59375 -6.8125q0 -1.609375 -1.0625 -2.734375q-1.046875 -1.125 -2.75 -1.125q-1.609375 0 -2.671875 1.125q-1.0625 1.125 -1.109375 2.734375l7.59375 0zm13.813293 6.8125q-2.578125 0 -2.578125 -2.703125l0 -7.59375l-1.921875 0l0 -1.578125l1.921875 0l0 -3.171875l1.796875 0l0 3.171875l2.359375 0l0 1.578125l-2.359375 0l0 7.203125q0 0.65625 0.28125 1.078125q0.296875 0.421875 0.90625 0.421875q0.734375 0 1.21875 -0.484375l0.53125 1.34375q-0.75 0.734375 -2.15625 0.734375zm9.180969 0q-2.515625 0 -4.125 -1.703125q-1.609375 -1.71875 -1.609375 -4.390625q0 -2.6875 1.609375 -4.375q1.609375 -1.6875 4.125 -1.6875q2.53125 0 4.125 1.6875q1.609375 1.6875 1.609375 4.375q0 2.671875 -1.609375 4.390625q-1.59375 1.703125 -4.125 1.703125zm0 -1.59375q1.6875 0 2.765625 -1.265625q1.078125 -1.265625 1.078125 -3.234375q0 -1.9375 -1.078125 -3.1875q-1.078125 -1.265625 -2.765625 -1.265625q-1.671875 0 -2.765625 1.25q-1.09375 1.234375 -1.09375 3.203125q0 2.0 1.078125 3.25q1.078125 1.25 2.78125 1.25zm13.727966 1.59375q-2.515625 0 -4.125 -1.703125q-1.609375 -1.71875 -1.609375 -4.390625q0 -2.6875 1.609375 -4.375q1.609375 -1.6875 4.125 -1.6875q2.53125 0 4.125 1.6875q1.609375 1.6875 1.609375 4.375q0 2.671875 -1.609375 4.390625q-1.59375 1.703125 -4.125 1.703125zm0 -1.59375q1.6875 0 2.765625 -1.265625q1.078125 -1.265625 1.078125 -3.234375q0 -1.9375 -1.078125 -3.1875q-1.078125 -1.265625 -2.765625 -1.265625q-1.671875 0 -2.765625 1.25q-1.09375 1.234375 -1.09375 3.203125q0 2.0 1.078125 3.25q1.078125 1.25 2.78125 1.25zm8.665527 1.3125l0 -16.015625l1.796875 0l0 16.015625l-1.796875 0zm9.071838 0.28125q-2.953125 0 -4.671875 -1.8125l0.9375 -1.296875q0.5625 0.671875 1.578125 1.171875q1.03125 0.484375 2.234375 0.484375q1.34375 0 2.03125 -0.5625q0.703125 -0.5625 0.703125 -1.4375q0 -0.765625 -0.765625 -1.203125q-0.75 -0.453125 -2.8125 -0.921875q-1.75 -0.359375 -2.671875 -1.140625q-0.921875 -0.78125 -0.921875 -2.109375q0 -1.46875 1.171875 -2.390625q1.171875 -0.9375 3.140625 -0.9375q2.625 0 4.296875 1.671875l-0.84375 1.25q-0.515625 -0.625 -1.421875 -1.046875q-0.90625 -0.421875 -2.03125 -0.421875q-1.203125 0 -1.890625 0.53125q-0.671875 0.53125 -0.671875 1.296875q0 0.703125 0.765625 1.109375q0.765625 0.40625 2.828125 0.84375q1.75 0.40625 2.65625 1.234375q0.921875 0.828125 0.921875 2.1875q0 1.609375 -1.25 2.5625q-1.25 0.9375 -3.3125 0.9375z" fill-rule="nonzero"/><path fill="#efefef" d="m276.99213 231.28691l0 0c0 -3.8714142 20.834503 -7.0098114 46.535187 -7.0098114c25.700684 0 46.535187 3.1383972 46.535187 7.0098114l0 28.03923c0 3.8714294 -20.834503 7.0098267 -46.535187 7.0098267c-25.700684 0 -46.535187 -3.1383972 -46.535187 -7.0098267z" fill-rule="evenodd"/><path fill="#000000" fill-opacity="0.0" d="m370.0625 231.28691l0 0c0 3.8714142 -20.834503 7.0098114 -46.535187 7.0098114c-25.700684 0 -46.535187 -3.1383972 -46.535187 -7.0098114" fill-rule="evenodd"/><path fill="#000000" fill-opacity="0.0" d="m276.99213 231.28691l0 0c0 -3.8714142 20.834503 -7.0098114 46.535187 -7.0098114c25.700684 0 46.535187 3.1383972 46.535187 7.0098114l0 28.03923c0 3.8714294 -20.834503 7.0098267 -46.535187 7.0098267c-25.700684 0 -46.535187 -3.1383972 -46.535187 -7.0098267z" fill-rule="evenodd"/><path stroke="#353744" stroke-width="1.0" stroke-linejoin="round" stroke-linecap="butt" d="m370.0625 231.28691l0 0c0 3.8714142 -20.834503 7.0098114 -46.535187 7.0098114c-25.700684 0 -46.535187 -3.1383972 -46.535187 -7.0098114" fill-rule="evenodd"/><path stroke="#353744" stroke-width="1.0" stroke-linejoin="round" stroke-linecap="butt" d="m276.99213 231.28691l0 0c0 -3.8714142 20.834503 -7.0098114 46.535187 -7.0098114c25.700684 0 46.535187 3.1383972 46.535187 7.0098114l0 28.03923c0 3.8714294 -20.834503 7.0098267 -46.535187 7.0098267c-25.700684 0 -46.535187 -3.1383972 -46.535187 -7.0098267z" fill-rule="evenodd"/><path fill="#efefef" d="m276.9926 199.47055l0 0c0 -3.8714142 20.834503 -7.0098114 46.535187 -7.0098114c25.700684 0 46.535187 3.1383972 46.535187 7.0098114l0 28.03923c0 3.8714142 -20.834503 7.0098114 -46.535187 7.0098114c-25.700684 0 -46.535187 -3.1383972 -46.535187 -7.0098114z" fill-rule="evenodd"/><path fill="#000000" fill-opacity="0.0" d="m370.063 199.47055l0 0c0 3.8714142 -20.834503 7.0098114 -46.535187 7.0098114c-25.700684 0 -46.535187 -3.1383972 -46.535187 -7.0098114" fill-rule="evenodd"/><path fill="#000000" fill-opacity="0.0" d="m276.9926 199.47055l0 0c0 -3.8714142 20.834503 -7.0098114 46.535187 -7.0098114c25.700684 0 46.535187 3.1383972 46.535187 7.0098114l0 28.03923c0 3.8714142 -20.834503 7.0098114 -46.535187 7.0098114c-25.700684 0 -46.535187 -3.1383972 -46.535187 -7.0098114z" fill-rule="evenodd"/><path stroke="#353744" stroke-width="1.0" stroke-linejoin="round" stroke-linecap="butt" d="m370.063 199.47055l0 0c0 3.8714142 -20.834503 7.0098114 -46.535187 7.0098114c-25.700684 0 -46.535187 -3.1383972 -46.535187 -7.0098114" fill-rule="evenodd"/><path stroke="#353744" stroke-width="1.0" stroke-linejoin="round" stroke-linecap="butt" d="m276.9926 199.47055l0 0c0 -3.8714142 20.834503 -7.0098114 46.535187 -7.0098114c25.700684 0 46.535187 3.1383972 46.535187 7.0098114l0 28.03923c0 3.8714142 -20.834503 7.0098114 -46.535187 7.0098114c-25.700684 0 -46.535187 -3.1383972 -46.535187 -7.0098114z" fill-rule="evenodd"/><path fill="#efefef" d="m276.9926 167.47176l0 0c0 -3.8714142 20.834503 -7.0098114 46.535187 -7.0098114c25.700684 0 46.535187 3.1383972 46.535187 7.0098114l0 28.03923c0 3.8714142 -20.834503 7.0098114 -46.535187 7.0098114c-25.700684 0 -46.535187 -3.1383972 -46.535187 -7.0098114z" fill-rule="evenodd"/><path fill="#000000" fill-opacity="0.0" d="m370.063 167.47176l0 0c0 3.8714142 -20.834503 7.0098114 -46.535187 7.0098114c-25.700684 0 -46.535187 -3.1383972 -46.535187 -7.0098114" fill-rule="evenodd"/><path fill="#000000" fill-opacity="0.0" d="m276.9926 167.47176l0 0c0 -3.8714142 20.834503 -7.0098114 46.535187 -7.0098114c25.700684 0 46.535187 3.1383972 46.535187 7.0098114l0 28.03923c0 3.8714142 -20.834503 7.0098114 -46.535187 7.0098114c-25.700684 0 -46.535187 -3.1383972 -46.535187 -7.0098114z" fill-rule="evenodd"/><path stroke="#353744" stroke-width="1.0" stroke-linejoin="round" stroke-linecap="butt" d="m370.063 167.47176l0 0c0 3.8714142 -20.834503 7.0098114 -46.535187 7.0098114c-25.700684 0 -46.535187 -3.1383972 -46.535187 -7.0098114" fill-rule="evenodd"/><path stroke="#353744" stroke-width="1.0" stroke-linejoin="round" stroke-linecap="butt" d="m276.9926 167.47176l0 0c0 -3.8714142 20.834503 -7.0098114 46.535187 -7.0098114c25.700684 0 46.535187 3.1383972 46.535187 7.0098114l0 28.03923c0 3.8714142 -20.834503 7.0098114 -46.535187 7.0098114c-25.700684 0 -46.535187 -3.1383972 -46.535187 -7.0098114z" fill-rule="evenodd"/><path fill="#000000" fill-opacity="0.0" d="m250.48819 265.85303l147.46457 0l0 41.984253l-147.46457 0z" fill-rule="evenodd"/><path fill="#000000" d="m275.87726 297.893l-4.078125 -6.359375l-3.203125 0l0 6.359375l-1.984375 0l0 -16.015625l6.421875 0q2.265625 0 3.640625 1.359375q1.375 1.34375 1.375 3.46875q0 2.015625 -1.171875 3.25q-1.15625 1.234375 -2.96875 1.40625l4.3125 6.53125l-2.34375 0zm-3.078125 -8.109375q1.4375 0 2.3125 -0.84375q0.875 -0.859375 0.875 -2.234375q0 -1.359375 -0.875 -2.203125q-0.875 -0.84375 -2.3125 -0.84375l-4.203125 0l0 6.125l4.203125 0zm12.840698 8.390625q-2.609375 0 -4.265625 -1.703125q-1.640625 -1.703125 -1.640625 -4.390625q0 -2.5625 1.625 -4.3125q1.640625 -1.75 4.09375 -1.75q2.5 0 4.03125 1.734375q1.53125 1.71875 1.53125 4.484375l0 0.453125l-9.375 0q0.09375 1.765625 1.28125 2.890625q1.1875 1.109375 2.890625 1.109375q2.109375 0 3.578125 -1.453125l0.859375 1.171875q-1.78125 1.765625 -4.609375 1.765625zm3.59375 -6.8125q0 -1.609375 -1.0625 -2.734375q-1.046875 -1.125 -2.75 -1.125q-1.609375 0 -2.671875 1.125q-1.0625 1.125 -1.109375 2.734375l7.59375 0zm10.402588 6.8125q-2.46875 0 -3.921875 -2.03125l0 6.171875l-1.796875 0l0 -16.015625l1.796875 0l0 1.734375q0.625 -0.890625 1.65625 -1.453125q1.03125 -0.5625 2.265625 -0.5625q2.328125 0 3.734375 1.640625q1.421875 1.625 1.421875 4.421875q0 2.78125 -1.40625 4.4375q-1.40625 1.65625 -3.75 1.65625zm-0.453125 -1.59375q1.671875 0 2.6875 -1.21875q1.03125 -1.234375 1.03125 -3.28125q0 -1.984375 -1.015625 -3.21875q-1.0 -1.234375 -2.703125 -1.234375q-1.09375 0 -2.046875 0.546875q-0.9375 0.53125 -1.421875 1.296875l0 5.234375q0.484375 0.765625 1.421875 1.328125q0.953125 0.546875 2.046875 0.546875zm13.524841 1.59375q-2.515625 0 -4.125 -1.703125q-1.609375 -1.71875 -1.609375 -4.390625q0 -2.6875 1.609375 -4.375q1.609375 -1.6875 4.125 -1.6875q2.53125 0 4.125 1.6875q1.609375 1.6875 1.609375 4.375q0 2.671875 -1.609375 4.390625q-1.59375 1.703125 -4.125 1.703125zm0 -1.59375q1.6875 0 2.765625 -1.265625q1.078125 -1.265625 1.078125 -3.234375q0 -1.9375 -1.078125 -3.1875q-1.078125 -1.265625 -2.765625 -1.265625q-1.671875 0 -2.765625 1.25q-1.09375 1.234375 -1.09375 3.203125q0 2.0 1.078125 3.25q1.078125 1.25 2.78125 1.25zm12.337341 1.59375q-2.953125 0 -4.671875 -1.8125l0.9375 -1.296875q0.5625 0.671875 1.578125 1.171875q1.03125 0.484375 2.234375 0.484375q1.34375 0 2.03125 -0.5625q0.703125 -0.5625 0.703125 -1.4375q0 -0.765625 -0.765625 -1.203125q-0.75 -0.453125 -2.8125 -0.921875q-1.75 -0.359375 -2.671875 -1.140625q-0.921875 -0.78125 -0.921875 -2.109375q0 -1.46875 1.171875 -2.390625q1.171875 -0.9375 3.140625 -0.9375q2.625 0 4.296875 1.671875l-0.84375 1.25q-0.515625 -0.625 -1.421875 -1.046875q-0.90625 -0.421875 -2.03125 -0.421875q-1.203125 0 -1.890625 0.53125q-0.671875 0.53125 -0.671875 1.296875q0 0.703125 0.765625 1.109375q0.765625 0.40625 2.828125 0.84375q1.75 0.40625 2.65625 1.234375q0.921875 0.828125 0.921875 2.1875q0 1.609375 -1.25 2.5625q-1.25 0.9375 -3.3125 0.9375zm8.378723 -13.53125q-0.484375 0 -0.84375 -0.34375q-0.359375 -0.34375 -0.359375 -0.859375q0 -0.5 0.359375 -0.859375q0.359375 -0.359375 0.84375 -0.359375q0.5 0 0.859375 0.359375q0.359375 0.359375 0.359375 0.859375q0 0.515625 -0.359375 0.859375q-0.359375 0.34375 -0.859375 0.34375zm-0.890625 13.25l0 -11.59375l1.796875 0l0 11.59375l-1.796875 0zm8.337494 0.28125q-2.578125 0 -2.578125 -2.703125l0 -7.59375l-1.921875 0l0 -1.578125l1.921875 0l0 -3.171875l1.796875 0l0 3.171875l2.359375 0l0 1.578125l-2.359375 0l0 7.203125q0 0.65625 0.28125 1.078125q0.296875 0.421875 0.90625 0.421875q0.734375 0 1.21875 -0.484375l0.53125 1.34375q-0.75 0.734375 -2.15625 0.734375zm9.180969 0q-2.515625 0 -4.125 -1.703125q-1.609375 -1.71875 -1.609375 -4.390625q0 -2.6875 1.609375 -4.375q1.609375 -1.6875 4.125 -1.6875q2.53125 0 4.125 1.6875q1.609375 1.6875 1.609375 4.375q0 2.671875 -1.609375 4.390625q-1.59375 1.703125 -4.125 1.703125zm0 -1.59375q1.6875 0 2.765625 -1.265625q1.078125 -1.265625 1.078125 -3.234375q0 -1.9375 -1.078125 -3.1875q-1.078125 -1.265625 -2.765625 -1.265625q-1.671875 0 -2.765625 1.25q-1.09375 1.234375 -1.09375 3.203125q0 2.0 1.078125 3.25q1.078125 1.25 2.78125 1.25zm8.665466 1.3125l0 -11.59375l1.796875 0l0 1.875q1.609375 -2.109375 3.875 -2.109375l0 1.84375l-0.71875 -0.078125q-0.828125 0 -1.8125 0.59375q-0.984375 0.59375 -1.34375 1.265625l0 8.203125l-1.796875 0zm7.560608 2.90625q0.390625 0.1875 0.984375 0.1875q0.609375 0 1.015625 -0.25q0.40625 -0.25 0.71875 -0.96875l0.765625 -1.75l-4.84375 -11.71875l1.9375 0l3.859375 9.5l3.84375 -9.5l1.96875 0l-5.8125 13.953125q-0.953125 2.296875 -3.40625 2.34375q-0.6875 0 -1.3125 -0.171875l0.28125 -1.625zm10.322479 -2.421875l5.6875 -16.96875l1.421875 0l-5.6875 16.96875l-1.421875 0z" fill-rule="nonzero"/><path fill="#000000" d="m294.3137 327.17426q-3.53125 0 -5.890625 -2.328125q-2.34375 -2.328125 -2.34375 -5.9375q0 -3.625 2.34375 -5.953125q2.359375 -2.328125 5.890625 -2.328125q3.8125 0 6.078125 3.15625l-1.6875 0.9375q-0.6875 -1.0 -1.859375 -1.65625q-1.15625 -0.671875 -2.53125 -0.671875q-2.65625 0 -4.421875 1.859375q-1.75 1.84375 -1.75 4.65625q0 2.828125 1.734375 4.671875q1.75 1.828125 4.4375 1.828125q1.375 0 2.53125 -0.640625q1.171875 -0.65625 1.859375 -1.6875l1.703125 0.9375q-2.328125 3.15625 -6.09375 3.15625zm16.395844 -0.28125l0 -1.625q-0.671875 0.765625 -1.75 1.34375q-1.078125 0.5625 -2.375 0.5625q-3.703125 0 -3.703125 -3.6875l0 -8.1875l1.796875 0l0 7.640625q0 1.359375 0.625 2.0q0.625 0.640625 1.96875 0.640625q1.0625 0 2.0 -0.53125q0.9375 -0.53125 1.4375 -1.234375l0 -8.515625l1.796875 0l0 11.59375l-1.796875 0zm5.3958435 0l0 -11.59375l1.796875 0l0 1.875q1.609375 -2.109375 3.875 -2.109375l0 1.84375l-0.71875 -0.078125q-0.828125 0 -1.8125 0.59375q-0.984375 0.59375 -1.34375 1.265625l0 8.203125l-1.796875 0zm15.169983 0l0 -1.3125q-1.46875 1.59375 -3.84375 1.59375q-1.75 0 -2.90625 -1.09375q-1.140625 -1.109375 -1.140625 -2.734375q0 -1.6875 1.140625 -2.75q1.140625 -1.078125 2.90625 -1.078125q2.5 0 3.84375 1.59375l0 -2.09375q0 -1.171875 -0.828125 -1.796875q-0.828125 -0.640625 -2.09375 -0.640625q-2.046875 0 -3.5625 1.59375l-0.828125 -1.234375q1.84375 -1.921875 4.625 -1.921875q2.140625 0 3.3125 1.03125q1.171875 1.03125 1.171875 2.875l0 7.96875l-1.796875 0zm-3.1875 -1.015625q2.125 0 3.1875 -1.4375l0 -2.171875q-1.0625 -1.453125 -3.1875 -1.453125q-1.28125 0 -2.078125 0.71875q-0.78125 0.703125 -0.78125 1.828125q0 1.109375 0.78125 1.8125q0.796875 0.703125 2.078125 0.703125zm11.522949 1.296875q-2.578125 0 -2.578125 -2.703125l0 -7.59375l-1.921875 0l0 -1.578125l1.921875 0l0 -3.171875l1.796875 0l0 3.171875l2.359375 0l0 1.578125l-2.359375 0l0 7.203125q0 0.65625 0.28125 1.078125q0.296875 0.421875 0.90625 0.421875q0.734375 0 1.21875 -0.484375l0.53125 1.34375q-0.75 0.734375 -2.15625 0.734375zm9.181 0q-2.515625 0 -4.125 -1.703125q-1.609375 -1.71875 -1.609375 -4.390625q0 -2.6875 1.609375 -4.375q1.609375 -1.6875 4.125 -1.6875q2.53125 0 4.125 1.6875q1.609375 1.6875 1.609375 4.375q0 2.671875 -1.609375 4.390625q-1.59375 1.703125 -4.125 1.703125zm0 -1.59375q1.6875 0 2.765625 -1.265625q1.078125 -1.265625 1.078125 -3.234375q0 -1.9375 -1.078125 -3.1875q-1.078125 -1.265625 -2.765625 -1.265625q-1.671875 0 -2.765625 1.25q-1.09375 1.234375 -1.09375 3.203125q0 2.0 1.078125 3.25q1.078125 1.25 2.78125 1.25zm8.665466 1.3125l0 -11.59375l1.796875 0l0 1.875q1.609375 -2.109375 3.875 -2.109375l0 1.84375l-0.71875 -0.078125q-0.828125 0 -1.8125 0.59375q-0.984375 0.59375 -1.34375 1.265625l0 8.203125l-1.796875 0z" fill-rule="nonzero"/><path fill="#efefef" d="m27.19685 257.85303l0 -18.346466l0 0c0 -10.132462 20.834625 -18.34645 46.535435 -18.34645c25.700806 0 46.53543 8.213989 46.53543 18.34645l0 18.346466z" fill-rule="evenodd"/><path stroke="#202729" stroke-width="1.0" stroke-linejoin="round" stroke-linecap="butt" d="m27.19685 257.85303l0 -18.346466l0 0c0 -10.132462 20.834625 -18.34645 46.535435 -18.34645c25.700806 0 46.53543 8.213989 46.53543 18.34645l0 18.346466z" fill-rule="evenodd"/><path fill="#efefef" d="m45.547215 196.63518l0 0c0 -15.559647 12.613583 -28.173233 28.17323 -28.173233l0 0c7.472 0 14.637978 2.9682465 19.921478 8.2517395c5.2835083 5.2835083 8.251747 12.449478 8.251747 19.921494l0 0c0 15.559631 -12.613579 28.173218 -28.173225 28.173218l0 0c-15.559647 0 -28.17323 -12.613586 -28.17323 -28.173218z" fill-rule="evenodd"/><path stroke="#202729" stroke-width="1.0" stroke-linejoin="round" stroke-linecap="butt" d="m45.547215 196.63518l0 0c0 -15.559647 12.613583 -28.173233 28.17323 -28.173233l0 0c7.472 0 14.637978 2.9682465 19.921478 8.2517395c5.2835083 5.2835083 8.251747 12.449478 8.251747 19.921494l0 0c0 15.559631 -12.613579 28.173218 -28.173225 28.173218l0 0c-15.559647 0 -28.17323 -12.613586 -28.17323 -28.173218z" fill-rule="evenodd"/><path fill="#000000" fill-opacity="0.0" d="m0.6745407 255.59317l147.46457 0l0 41.984253l-147.46457 0z" fill-rule="evenodd"/><path fill="#000000" d="m51.70589 287.63318l0 -16.015625l5.46875 0q3.640625 0 5.921875 2.28125q2.2812462 2.265625 2.2812462 5.75q0 3.5 -2.2968712 5.75q-2.28125 2.234375 -5.90625 2.234375l-5.46875 0zm5.46875 -1.78125q2.734375 0 4.4375 -1.703125q1.703125 -1.71875 1.703125 -4.5q0 -2.796875 -1.6875 -4.515625q-1.671875 -1.734375 -4.453125 -1.734375l-3.484375 0l0 12.453125l3.484375 0zm18.503078 1.78125l0 -1.3125q-1.46875 1.59375 -3.84375 1.59375q-1.75 0 -2.90625 -1.09375q-1.140625 -1.109375 -1.140625 -2.734375q0 -1.6875 1.140625 -2.75q1.140625 -1.078125 2.90625 -1.078125q2.5 0 3.84375 1.59375l0 -2.09375q0 -1.171875 -0.828125 -1.796875q-0.828125 -0.640625 -2.09375 -0.640625q-2.046875 0 -3.5625 1.59375l-0.828125 -1.234375q1.84375 -1.921875 4.625 -1.921875q2.140625 0 3.3125 1.03125q1.171875 1.03125 1.171875 2.875l0 7.96875l-1.796875 0zm-3.1875 -1.015625q2.125 0 3.1875 -1.4375l0 -2.171875q-1.0625 -1.453125 -3.1875 -1.453125q-1.28125 0 -2.078125 0.71875q-0.78125 0.703125 -0.78125 1.828125q0 1.109375 0.78125 1.8125q0.796875 0.703125 2.078125 0.703125zm11.5229645 1.296875q-2.578125 0 -2.578125 -2.703125l0 -7.59375l-1.921875 0l0 -1.578125l1.921875 0l0 -3.171875l1.796875 0l0 3.171875l2.359375 0l0 1.578125l-2.359375 0l0 7.203125q0 0.65625 0.28125 1.078125q0.296875 0.421875 0.90625 0.421875q0.734375 0 1.21875 -0.484375l0.53125 1.34375q-0.75 0.734375 -2.15625 0.734375zm11.3684845 -0.28125l0 -1.3125q-1.46875 1.59375 -3.84375 1.59375q-1.75 0 -2.90625 -1.09375q-1.140625 -1.109375 -1.140625 -2.734375q0 -1.6875 1.140625 -2.75q1.140625 -1.078125 2.90625 -1.078125q2.5 0 3.84375 1.59375l0 -2.09375q0 -1.171875 -0.828125 -1.796875q-0.828125 -0.640625 -2.09375 -0.640625q-2.046875 0 -3.5625 1.59375l-0.828125 -1.234375q1.84375 -1.921875 4.625 -1.921875q2.140625 0 3.3125 1.03125q1.171875 1.03125 1.171875 2.875l0 7.96875l-1.796875 0zm-3.1875 -1.015625q2.125 0 3.1875 -1.4375l0 -2.171875q-1.0625 -1.453125 -3.1875 -1.453125q-1.28125 0 -2.078125 0.71875q-0.78125 0.703125 -0.78125 1.828125q0 1.109375 0.78125 1.8125q0.796875 0.703125 2.078125 0.703125z" fill-rule="nonzero"/><path fill="#000000" d="m51.901676 316.63318l0 -7.34375l-9.359375 0l0 7.34375l-1.984375 0l0 -16.015625l1.984375 0l0 6.890625l9.359375 0l0 -6.890625l2.0 0l0 16.015625l-2.0 0zm10.728577 0.28125q-2.515625 0 -4.125 -1.703125q-1.609375 -1.71875 -1.609375 -4.390625q0 -2.6875 1.609375 -4.375q1.609375 -1.6875 4.125 -1.6875q2.5312462 0 4.124996 1.6875q1.609375 1.6875 1.609375 4.375q0 2.671875 -1.609375 4.390625q-1.59375 1.703125 -4.124996 1.703125zm0 -1.59375q1.6874962 0 2.7656212 -1.265625q1.078125 -1.265625 1.078125 -3.234375q0 -1.9375 -1.078125 -3.1875q-1.078125 -1.265625 -2.7656212 -1.265625q-1.671875 0 -2.765625 1.25q-1.09375 1.234375 -1.09375 3.203125q0 2.0 1.078125 3.25q1.078125 1.25 2.78125 1.25zm8.6654625 1.3125l0 -16.015625l1.796875 0l0 16.015625l-1.796875 0zm13.806229 0l0 -1.734375q-0.65625 0.890625 -1.671875 1.453125q-1.015625 0.5625 -2.25 0.5625q-2.328125 0 -3.75 -1.65625q-1.40625 -1.65625 -1.40625 -4.40625q0 -2.78125 1.421875 -4.4375q1.4375 -1.65625 3.734375 -1.65625q1.1875 0 2.203125 0.546875q1.015625 0.53125 1.71875 1.484375l0 -6.171875l1.796875 0l0 16.015625l-1.796875 0zm-3.484375 -1.3125q1.078125 0 2.03125 -0.53125q0.96875 -0.53125 1.453125 -1.296875l0 -5.265625q-0.484375 -0.765625 -1.453125 -1.3125q-0.953125 -0.546875 -2.03125 -0.546875q-1.671875 0 -2.703125 1.21875q-1.015625 1.21875 -1.015625 3.265625q0 1.984375 1.0 3.234375q1.015625 1.234375 2.71875 1.234375zm14.112457 1.59375q-2.609375 0 -4.265625 -1.703125q-1.640625 -1.703125 -1.640625 -4.390625q0 -2.5625 1.625 -4.3125q1.640625 -1.75 4.09375 -1.75q2.5 0 4.03125 1.734375q1.53125 1.71875 1.53125 4.484375l0 0.453125l-9.375 0q0.09375 1.765625 1.28125 2.890625q1.1875 1.109375 2.890625 1.109375q2.109375 0 3.578125 -1.453125l0.859375 1.171875q-1.78125 1.765625 -4.609375 1.765625zm3.59375 -6.8125q0 -1.609375 -1.0625 -2.734375q-1.046875 -1.125 -2.75 -1.125q-1.609375 0 -2.671875 1.125q-1.0625 1.125 -1.109375 2.734375l7.59375 0zm4.683838 6.53125l0 -11.59375l1.796875 0l0 1.875q1.609375 -2.109375 3.875 -2.109375l0 1.84375l-0.71875 -0.078125q-0.828125 0 -1.8125 0.59375q-0.984375 0.59375 -1.34375 1.265625l0 8.203125l-1.796875 0z" fill-rule="nonzero"/><path fill="#efefef" d="m795.19684 257.85303l0 -18.346466l0 0c0 -10.132462 20.834656 -18.34645 46.53546 -18.34645c25.700806 0 46.5354 8.213989 46.5354 18.34645l0 18.346466z" fill-rule="evenodd"/><path stroke="#202729" stroke-width="1.0" stroke-linejoin="round" stroke-linecap="butt" d="m795.19684 257.85303l0 -18.346466l0 0c0 -10.132462 20.834656 -18.34645 46.53546 -18.34645c25.700806 0 46.5354 8.213989 46.5354 18.34645l0 18.346466z" fill-rule="evenodd"/><path fill="#efefef" d="m813.19946 196.63518l0 0c0 -15.559647 12.613586 -28.173233 28.173218 -28.173233l0 0c7.472046 0 14.6380005 2.9682465 19.921509 8.2517395c5.2835083 5.2835083 8.25177 12.449478 8.25177 19.921494l0 0c0 15.559631 -12.613586 28.173218 -28.173279 28.173218l0 0c-15.559631 0 -28.173218 -12.613586 -28.173218 -28.173218z" fill-rule="evenodd"/><path stroke="#202729" stroke-width="1.0" stroke-linejoin="round" stroke-linecap="butt" d="m813.19946 196.63518l0 0c0 -15.559647 12.613586 -28.173233 28.173218 -28.173233l0 0c7.472046 0 14.6380005 2.9682465 19.921509 8.2517395c5.2835083 5.2835083 8.25177 12.449478 8.25177 19.921494l0 0c0 15.559631 -12.613586 28.173218 -28.173279 28.173218l0 0c-15.559631 0 -28.173218 -12.613586 -28.173218 -28.173218z" fill-rule="evenodd"/><path fill="#000000" fill-opacity="0.0" d="m787.4199 257.85303l107.90552 0l0 41.984253l-107.90552 0z" fill-rule="evenodd"/><path fill="#000000" d="m818.67175 289.893l0 -16.015625l5.46875 0q3.640625 0 5.921875 2.28125q2.28125 2.265625 2.28125 5.75q0 3.5 -2.296875 5.75q-2.28125 2.234375 -5.90625 2.234375l-5.46875 0zm5.46875 -1.78125q2.734375 0 4.4375 -1.703125q1.703125 -1.71875 1.703125 -4.5q0 -2.796875 -1.6875 -4.515625q-1.671875 -1.734375 -4.453125 -1.734375l-3.484375 0l0 12.453125l3.484375 0zm18.503113 1.78125l0 -1.3125q-1.46875 1.59375 -3.84375 1.59375q-1.75 0 -2.90625 -1.09375q-1.140625 -1.109375 -1.140625 -2.734375q0 -1.6875 1.140625 -2.75q1.140625 -1.078125 2.90625 -1.078125q2.5 0 3.84375 1.59375l0 -2.09375q0 -1.171875 -0.828125 -1.796875q-0.828125 -0.640625 -2.09375 -0.640625q-2.046875 0 -3.5625 1.59375l-0.828125 -1.234375q1.84375 -1.921875 4.625 -1.921875q2.140625 0 3.3125 1.03125q1.171875 1.03125 1.171875 2.875l0 7.96875l-1.796875 0zm-3.1875 -1.015625q2.125 0 3.1875 -1.4375l0 -2.171875q-1.0625 -1.453125 -3.1875 -1.453125q-1.28125 0 -2.078125 0.71875q-0.78125 0.703125 -0.78125 1.828125q0 1.109375 0.78125 1.8125q0.796875 0.703125 2.078125 0.703125zm11.522949 1.296875q-2.578125 0 -2.578125 -2.703125l0 -7.59375l-1.921875 0l0 -1.578125l1.921875 0l0 -3.171875l1.796875 0l0 3.171875l2.359375 0l0 1.578125l-2.359375 0l0 7.203125q0 0.65625 0.28125 1.078125q0.296875 0.421875 0.90625 0.421875q0.734375 0 1.21875 -0.484375l0.53125 1.34375q-0.75 0.734375 -2.15625 0.734375zm11.368469 -0.28125l0 -1.3125q-1.46875 1.59375 -3.84375 1.59375q-1.75 0 -2.90625 -1.09375q-1.140625 -1.109375 -1.140625 -2.734375q0 -1.6875 1.140625 -2.75q1.140625 -1.078125 2.90625 -1.078125q2.5 0 3.84375 1.59375l0 -2.09375q0 -1.171875 -0.828125 -1.796875q-0.828125 -0.640625 -2.09375 -0.640625q-2.046875 0 -3.5625 1.59375l-0.828125 -1.234375q1.84375 -1.921875 4.625 -1.921875q2.140625 0 3.3125 1.03125q1.171875 1.03125 1.171875 2.875l0 7.96875l-1.796875 0zm-3.1875 -1.015625q2.125 0 3.1875 -1.4375l0 -2.171875q-1.0625 -1.453125 -3.1875 -1.453125q-1.28125 0 -2.078125 0.71875q-0.78125 0.703125 -0.78125 1.828125q0 1.109375 0.78125 1.8125q0.796875 0.703125 2.078125 0.703125z" fill-rule="nonzero"/><path fill="#000000" d="m825.083 319.17426q-3.109375 0 -4.828125 -1.6875q-1.703125 -1.6875 -1.703125 -4.8125l0 -9.796875l1.984375 0l0 9.75q0 2.203125 1.15625 3.5q1.15625 1.28125 3.390625 1.28125q2.21875 0 3.375 -1.28125q1.15625 -1.296875 1.15625 -3.5l0 -9.75l1.984375 0l0 9.78125q0 3.109375 -1.6875 4.8125q-1.671875 1.703125 -4.828125 1.703125zm13.862488 0q-2.953125 0 -4.671875 -1.8125l0.9375 -1.296875q0.5625 0.671875 1.578125 1.171875q1.03125 0.484375 2.234375 0.484375q1.34375 0 2.03125 -0.5625q0.703125 -0.5625 0.703125 -1.4375q0 -0.765625 -0.765625 -1.203125q-0.75 -0.453125 -2.8125 -0.921875q-1.75 -0.359375 -2.671875 -1.140625q-0.921875 -0.78125 -0.921875 -2.109375q0 -1.46875 1.171875 -2.390625q1.171875 -0.9375 3.140625 -0.9375q2.625 0 4.296875 1.671875l-0.84375 1.25q-0.515625 -0.625 -1.421875 -1.046875q-0.90625 -0.421875 -2.03125 -0.421875q-1.203125 0 -1.890625 0.53125q-0.671875 0.53125 -0.671875 1.296875q0 0.703125 0.765625 1.109375q0.765625 0.40625 2.828125 0.84375q1.75 0.40625 2.65625 1.234375q0.921875 0.828125 0.921875 2.1875q0 1.609375 -1.25 2.5625q-1.25 0.9375 -3.3125 0.9375zm12.722473 0q-2.609375 0 -4.265625 -1.703125q-1.640625 -1.703125 -1.640625 -4.390625q0 -2.5625 1.625 -4.3125q1.640625 -1.75 4.09375 -1.75q2.5 0 4.03125 1.734375q1.53125 1.71875 1.53125 4.484375l0 0.453125l-9.375 0q0.09375 1.765625 1.28125 2.890625q1.1875 1.109375 2.890625 1.109375q2.109375 0 3.578125 -1.453125l0.859375 1.171875q-1.78125 1.765625 -4.609375 1.765625zm3.59375 -6.8125q0 -1.609375 -1.0625 -2.734375q-1.046875 -1.125 -2.75 -1.125q-1.609375 0 -2.671875 1.125q-1.0625 1.125 -1.109375 2.734375l7.59375 0zm4.683838 6.53125l0 -11.59375l1.796875 0l0 1.875q1.609375 -2.109375 3.875 -2.109375l0 1.84375l-0.71875 -0.078125q-0.828125 0 -1.8125 0.59375q-0.984375 0.59375 -1.34375 1.265625l0 8.203125l-1.796875 0z" fill-rule="nonzero"/><path fill="#efefef" d="m138.47769 207.73491l83.00787 0l0 -18.118118l36.236206 36.23622l-36.236206 36.23622l0 -18.118103l-83.00787 0z" fill-rule="evenodd"/><path stroke="#202729" stroke-width="1.0" stroke-linejoin="round" stroke-linecap="butt" d="m138.47769 207.73491l83.00787 0l0 -18.118118l36.236206 36.23622l-36.236206 36.23622l0 -18.118103l-83.00787 0z" fill-rule="evenodd"/><path fill="#cccccc" d="m415.5118 126.72441l293.40158 0l0 -35.362206l70.72443 70.7244l-70.72443 70.72441l0 -35.362198l-293.40158 0z" fill-rule="evenodd"/><path stroke="#202729" stroke-width="1.0" stroke-linejoin="round" stroke-linecap="butt" d="m415.5118 126.72441l293.40158 0l0 -35.362206l70.72443 70.7244l-70.72443 70.72441l0 -35.362198l-293.40158 0z" fill-rule="evenodd"/><path fill="#000000" d="m426.08994 156.12662l0 -16.015625l6.3125 0q3.796875 0 6.140625 2.21875q2.359375 2.203125 2.359375 5.8125q0 3.5625 -2.359375 5.78125q-2.34375 2.203125 -6.140625 2.203125l-6.3125 0zm6.3125 -3.0q2.234375 0 3.625 -1.40625q1.390625 -1.40625 1.390625 -3.578125q0 -2.28125 -1.328125 -3.65625q-1.328125 -1.375 -3.6875 -1.375l-2.90625 0l0 10.015625l2.90625 0zm16.231964 3.28125q-2.6875 0 -4.40625 -1.71875q-1.71875 -1.734375 -1.71875 -4.375q0 -2.640625 1.71875 -4.34375q1.71875 -1.71875 4.40625 -1.71875q2.6875 0 4.40625 1.71875q1.734375 1.703125 1.734375 4.34375q0 2.671875 -1.734375 4.390625q-1.71875 1.703125 -4.40625 1.703125zm0 -2.703125q1.3125 0 2.140625 -0.9375q0.828125 -0.953125 0.828125 -2.453125q0 -1.4375 -0.828125 -2.390625q-0.828125 -0.96875 -2.140625 -0.96875q-1.28125 0 -2.125 0.9375q-0.828125 0.921875 -0.828125 2.421875q0 1.546875 0.828125 2.46875q0.84375 0.921875 2.125 0.921875zm18.572815 2.421875l-2.453125 -7.890625l-2.4375 7.890625l-3.265625 0l-3.53125 -11.59375l3.171875 0l2.15625 7.796875l2.546875 -7.796875l2.703125 0l2.546875 7.796875l2.15625 -7.796875l3.171875 0l-3.53125 11.59375l-3.234375 0zm16.112213 0l0 -7.015625q0 -2.15625 -2.140625 -2.15625q-1.65625 0 -2.640625 1.375l0 7.796875l-3.046875 0l0 -11.59375l3.046875 0l0 1.515625q0.546875 -0.671875 1.578125 -1.234375q1.03125 -0.5625 2.46875 -0.5625q1.921875 0 2.84375 1.0q0.9375 0.984375 0.9375 2.6875l0 8.1875l-3.046875 0zm6.0678406 0l0 -16.015625l3.046875 0l0 16.015625l-3.046875 0zm11.44696 0.28125q-2.6875 0 -4.40625 -1.71875q-1.71875 -1.734375 -1.71875 -4.375q0 -2.640625 1.71875 -4.34375q1.71875 -1.71875 4.40625 -1.71875q2.6875 0 4.40625 1.71875q1.734375 1.703125 1.734375 4.34375q0 2.671875 -1.734375 4.390625q-1.71875 1.703125 -4.40625 1.703125zm0 -2.703125q1.3125 0 2.140625 -0.9375q0.828125 -0.953125 0.828125 -2.453125q0 -1.4375 -0.828125 -2.390625q-0.828125 -0.96875 -2.140625 -0.96875q-1.28125 0 -2.125 0.9375q-0.828125 0.921875 -0.828125 2.421875q0 1.546875 0.828125 2.46875q0.84375 0.921875 2.125 0.921875zm15.354065 2.421875l0 -1.203125q-1.265625 1.484375 -3.671875 1.484375q-1.6718445 0 -2.8593445 -1.0625q-1.171875 -1.0625 -1.171875 -2.765625q0 -1.703125 1.109375 -2.71875q1.125 -1.03125 2.9218445 -1.03125q2.5 0 3.671875 1.421875l0 -1.5625q0 -0.890625 -0.703125 -1.421875q-0.6875 -0.53125 -1.84375 -0.53125q-1.9062195 0 -3.3749695 1.375l-1.15625 -2.046875q2.109375 -1.8125 5.0624695 -1.8125q2.453125 0 3.75 1.140625q1.3125 1.140625 1.3125 3.25l0 7.484375l-3.046875 0zm-2.4375 -1.78125q1.671875 0 2.4375 -1.0l0 -1.4375q-0.765625 -1.015625 -2.4375 -1.015625q-0.921875 0 -1.5625 0.46875q-0.6249695 0.453125 -0.6249695 1.28125q0 0.828125 0.6249695 1.265625q0.640625 0.4375 1.5625 0.4375zm16.485107 1.78125l0 -1.484375q-1.4375 1.765625 -3.578125 1.765625q-2.3125 0 -3.734375 -1.65625q-1.40625 -1.65625 -1.40625 -4.40625q0 -2.734375 1.40625 -4.40625q1.421875 -1.6875 3.734375 -1.6875q2.1875 0 3.578125 1.765625l0 -5.90625l3.0625 0l0 16.015625l-3.0625 0zm-2.640625 -2.421875q0.765625 0 1.5 -0.375q0.75 -0.375 1.140625 -0.953125l0 -4.09375q-0.390625 -0.578125 -1.140625 -0.953125q-0.734375 -0.375 -1.5 -0.375q-1.296875 0 -2.125 0.9375q-0.8125 0.9375 -0.8125 2.453125q0 1.46875 0.796875 2.421875q0.796875 0.9375 2.140625 0.9375z" fill-rule="nonzero"/><path fill="#000000" d="m552.83563 156.12662l-3.015625 -9.3125l-3.03125 9.3125l-1.796875 0l-3.703125 -11.59375l1.875 0l2.828125 9.234375l3.0625 -9.234375l1.53125 0l3.046875 9.234375l2.828125 -9.234375l1.875 0l-3.703125 11.59375l-1.796875 0zm5.787781 0.484375l5.6875 -16.96875l1.421875 0l-5.6875 16.96875l-1.421875 0zm18.76471 -0.203125q-2.953125 0 -4.671875 -1.8125l0.9375 -1.296875q0.5625 0.671875 1.578125 1.171875q1.03125 0.484375 2.234375 0.484375q1.34375 0 2.03125 -0.5625q0.703125 -0.5625 0.703125 -1.4375q0 -0.765625 -0.765625 -1.203125q-0.75 -0.453125 -2.8125 -0.921875q-1.75 -0.359375 -2.671875 -1.140625q-0.921875 -0.78125 -0.921875 -2.109375q0 -1.46875 1.171875 -2.390625q1.171875 -0.9375 3.140625 -0.9375q2.625 0 4.296875 1.671875l-0.84375 1.25q-0.515625 -0.625 -1.421875 -1.046875q-0.90625 -0.421875 -2.03125 -0.421875q-1.203125 0 -1.890625 0.53125q-0.671875 0.53125 -0.671875 1.296875q0 0.703125 0.765625 1.109375q0.765625 0.40625 2.828125 0.84375q1.75 0.40625 2.65625 1.234375q0.921875 0.828125 0.921875 2.1875q0 1.609375 -1.25 2.5625q-1.25 0.9375 -3.3125 0.9375zm14.738098 -0.28125l0 -1.3125q-1.46875 1.59375 -3.84375 1.59375q-1.75 0 -2.90625 -1.09375q-1.140625 -1.109375 -1.140625 -2.734375q0 -1.6875 1.140625 -2.75q1.140625 -1.078125 2.90625 -1.078125q2.5 0 3.84375 1.59375l0 -2.09375q0 -1.171875 -0.828125 -1.796875q-0.828125 -0.640625 -2.09375 -0.640625q-2.046875 0 -3.5625 1.59375l-0.828125 -1.234375q1.84375 -1.921875 4.625 -1.921875q2.140625 0 3.3125 1.03125q1.171875 1.03125 1.171875 2.875l0 7.96875l-1.796875 0zm-3.1875 -1.015625q2.125 0 3.1875 -1.4375l0 -2.171875q-1.0625 -1.453125 -3.1875 -1.453125q-1.28125 0 -2.078125 0.71875q-0.78125 0.703125 -0.78125 1.828125q0 1.109375 0.78125 1.8125q0.796875 0.703125 2.078125 0.703125zm16.413635 1.015625l0 -7.578125q0 -1.546875 -0.71875 -2.109375q-0.703125 -0.578125 -1.875 -0.578125q-1.0 0 -1.984375 0.546875q-0.96875 0.53125 -1.453125 1.25l0 8.46875l-1.796875 0l0 -11.59375l1.796875 0l0 1.6875q0.75 -0.875 1.84375 -1.421875q1.09375 -0.546875 2.296875 -0.546875q3.6875 0 3.6875 3.734375l0 8.140625l-1.796875 0zm6.286438 -13.25q-0.484375 0 -0.84375 -0.34375q-0.359375 -0.34375 -0.359375 -0.859375q0 -0.5 0.359375 -0.859375q0.359375 -0.359375 0.84375 -0.359375q0.5 0 0.859375 0.359375q0.359375 0.359375 0.359375 0.859375q0 0.515625 -0.359375 0.859375q-0.359375 0.34375 -0.859375 0.34375zm-0.890625 13.25l0 -11.59375l1.796875 0l0 11.59375l-1.796875 0zm8.337463 0.28125q-2.578125 0 -2.578125 -2.703125l0 -7.59375l-1.921875 0l0 -1.578125l1.921875 0l0 -3.171875l1.796875 0l0 3.171875l2.359375 0l0 1.578125l-2.359375 0l0 7.203125q0 0.65625 0.28125 1.078125q0.296875 0.421875 0.90625 0.421875q0.734375 0 1.21875 -0.484375l0.53125 1.34375q-0.75 0.734375 -2.15625 0.734375zm5.0091553 -13.53125q-0.484375 0 -0.84375 -0.34375q-0.359375 -0.34375 -0.359375 -0.859375q0 -0.5 0.359375 -0.859375q0.359375 -0.359375 0.84375 -0.359375q0.5 0 0.859375 0.359375q0.359375 0.359375 0.359375 0.859375q0 0.515625 -0.359375 0.859375q-0.359375 0.34375 -0.859375 0.34375zm-0.890625 13.25l0 -11.59375l1.796875 0l0 11.59375l-1.796875 0zm4.8530884 0l0 -1.390625l6.375 -8.625l-6.375 0l0 -1.578125l8.734375 0l0 1.375l-6.4375 8.65625l6.53125 0l0 1.5625l-8.828125 0zm19.124817 0l0 -1.3125q-1.46875 1.59375 -3.84375 1.59375q-1.75 0 -2.90625 -1.09375q-1.140625 -1.109375 -1.140625 -2.734375q0 -1.6875 1.140625 -2.75q1.140625 -1.078125 2.90625 -1.078125q2.5 0 3.84375 1.59375l0 -2.09375q0 -1.171875 -0.828125 -1.796875q-0.828125 -0.640625 -2.09375 -0.640625q-2.046875 0 -3.5625 1.59375l-0.828125 -1.234375q1.84375 -1.921875 4.625 -1.921875q2.140625 0 3.3125 1.03125q1.171875 1.03125 1.171875 2.875l0 7.96875l-1.796875 0zm-3.1875 -1.015625q2.125 0 3.1875 -1.4375l0 -2.171875q-1.0625 -1.453125 -3.1875 -1.453125q-1.28125 0 -2.078125 0.71875q-0.78125 0.703125 -0.78125 1.828125q0 1.109375 0.78125 1.8125q0.796875 0.703125 2.078125 0.703125zm11.52301 1.296875q-2.578125 0 -2.578125 -2.703125l0 -7.59375l-1.921875 0l0 -1.578125l1.921875 0l0 -3.171875l1.796875 0l0 3.171875l2.359375 0l0 1.578125l-2.359375 0l0 7.203125q0 0.65625 0.28125 1.078125q0.296875 0.421875 0.90625 0.421875q0.734375 0 1.21875 -0.484375l0.53125 1.34375q-0.75 0.734375 -2.15625 0.734375zm5.009094 -13.53125q-0.484375 0 -0.84375 -0.34375q-0.359375 -0.34375 -0.359375 -0.859375q0 -0.5 0.359375 -0.859375q0.359375 -0.359375 0.84375 -0.359375q0.5 0 0.859375 0.359375q0.359375 0.359375 0.359375 0.859375q0 0.515625 -0.359375 0.859375q-0.359375 0.34375 -0.859375 0.34375zm-0.890625 13.25l0 -11.59375l1.796875 0l0 11.59375l-1.796875 0zm10.462463 0.28125q-2.515625 0 -4.125 -1.703125q-1.609375 -1.71875 -1.609375 -4.390625q0 -2.6875 1.609375 -4.375q1.609375 -1.6875 4.125 -1.6875q2.53125 0 4.125 1.6875q1.609375 1.6875 1.609375 4.375q0 2.671875 -1.609375 4.390625q-1.59375 1.703125 -4.125 1.703125zm0 -1.59375q1.6875 0 2.765625 -1.265625q1.078125 -1.265625 1.078125 -3.234375q0 -1.9375 -1.078125 -3.1875q-1.078125 -1.265625 -2.765625 -1.265625q-1.671875 0 -2.765625 1.25q-1.09375 1.234375 -1.09375 3.203125q0 2.0 1.078125 3.25q1.078125 1.25 2.78125 1.25zm16.493591 1.3125l0 -7.578125q0 -1.546875 -0.71875 -2.109375q-0.703125 -0.578125 -1.875 -0.578125q-1.0 0 -1.984375 0.546875q-0.96875 0.53125 -1.453125 1.25l0 8.46875l-1.796875 0l0 -11.59375l1.796875 0l0 1.6875q0.75 -0.875 1.84375 -1.421875q1.09375 -0.546875 2.296875 -0.546875q3.6875 0 3.6875 3.734375l0 8.140625l-1.796875 0z" fill-rule="nonzero"/><path fill="#000000" d="m433.5587 185.12662l0 -1.3125q-1.46875 1.59375 -3.84375 1.59375q-1.75 0 -2.90625 -1.09375q-1.140625 -1.109375 -1.140625 -2.734375q0 -1.6875 1.140625 -2.75q1.140625 -1.078125 2.90625 -1.078125q2.5 0 3.84375 1.59375l0 -2.09375q0 -1.171875 -0.828125 -1.796875q-0.828125 -0.640625 -2.09375 -0.640625q-2.046875 0 -3.5625 1.59375l-0.828125 -1.234375q1.84375 -1.921875 4.625 -1.921875q2.140625 0 3.3125 1.03125q1.171875 1.03125 1.171875 2.875l0 7.96875l-1.796875 0zm-3.1875 -1.015625q2.125 0 3.1875 -1.4375l0 -2.171875q-1.0625 -1.453125 -3.1875 -1.453125q-1.28125 0 -2.078125 0.71875q-0.78125 0.703125 -0.78125 1.828125q0 1.109375 0.78125 1.8125q0.796875 0.703125 2.078125 0.703125zm16.413605 1.015625l0 -7.578125q0 -1.546875 -0.71875 -2.109375q-0.703125 -0.578125 -1.875 -0.578125q-1.0 0 -1.984375 0.546875q-0.96875 0.53125 -1.453125 1.25l0 8.46875l-1.796875 0l0 -11.59375l1.796875 0l0 1.6875q0.75 -0.875 1.84375 -1.421875q1.09375 -0.546875 2.296875 -0.546875q3.6875 0 3.6875 3.734375l0 8.140625l-1.796875 0zm13.8020935 0l0 -1.734375q-0.65625 0.890625 -1.671875 1.453125q-1.015625 0.5625 -2.25 0.5625q-2.328125 0 -3.75 -1.65625q-1.40625 -1.65625 -1.40625 -4.40625q0 -2.78125 1.421875 -4.4375q1.4375 -1.65625 3.734375 -1.65625q1.1875 0 2.203125 0.546875q1.015625 0.53125 1.71875 1.484375l0 -6.171875l1.796875 0l0 16.015625l-1.796875 0zm-3.484375 -1.3125q1.078125 0 2.03125 -0.53125q0.96875 -0.53125 1.453125 -1.296875l0 -5.265625q-0.484375 -0.765625 -1.453125 -1.3125q-0.953125 -0.546875 -2.03125 -0.546875q-1.671875 0 -2.703125 1.21875q-1.015625 1.21875 -1.015625 3.265625q0 1.984375 1.0 3.234375q1.015625 1.234375 2.71875 1.234375zm18.007568 1.59375q-2.578125 0 -2.578125 -2.703125l0 -7.59375l-1.921875 0l0 -1.578125l1.921875 0l0 -3.171875l1.796875 0l0 3.171875l2.359375 0l0 1.578125l-2.359375 0l0 7.203125q0 0.65625 0.28125 1.078125q0.296875 0.421875 0.90625 0.421875q0.734375 0 1.21875 -0.484375l0.53125 1.34375q-0.75 0.734375 -2.15625 0.734375zm9.352844 0q-2.609375 0 -4.265625 -1.703125q-1.640625 -1.703125 -1.640625 -4.390625q0 -2.5625 1.625 -4.3125q1.640625 -1.75 4.09375 -1.75q2.5 0 4.03125 1.734375q1.53125 1.71875 1.53125 4.484375l0 0.453125l-9.375 0q0.09375 1.765625 1.28125 2.890625q1.1875 1.109375 2.890625 1.109375q2.109375 0 3.578125 -1.453125l0.859375 1.171875q-1.78125 1.765625 -4.609375 1.765625zm3.59375 -6.8125q0 -1.609375 -1.0625 -2.734375q-1.046875 -1.125 -2.75 -1.125q-1.609375 0 -2.671875 1.125q-1.0625 1.125 -1.109375 2.734375l7.59375 0zm4.683838 6.53125l0 -11.59375l1.796875 0l0 1.875q1.609375 -2.109375 3.875 -2.109375l0 1.84375l-0.71875 -0.078125q-0.828125 0 -1.8125 0.59375q-0.984375 0.59375 -1.34375 1.265625l0 8.203125l-1.796875 0zm21.920013 0l0 -7.875q0 -2.390625 -2.140625 -2.390625q-0.9062805 0 -1.7656555 0.546875q-0.84375 0.53125 -1.3125 1.21875l0 8.5l-1.796875 0l0 -7.875q0 -2.390625 -2.140625 -2.390625q-0.875 0 -1.71875 0.546875q-0.84375 0.546875 -1.328125 1.25l0 8.46875l-1.796875 0l0 -11.59375l1.796875 0l0 1.6875q0.421875 -0.703125 1.546875 -1.328125q1.125 -0.640625 2.203125 -0.640625q1.34375 0 2.09375 0.625q0.765625 0.625 1.03125 1.53125q0.59375 -0.9375 1.6875 -1.546875q1.1094055 -0.609375 2.2031555 -0.609375q3.234375 0 3.234375 3.5l0 8.375l-1.796875 0zm9.063782 0.28125q-2.953125 0 -4.671875 -1.8125l0.9375 -1.296875q0.5625 0.671875 1.578125 1.171875q1.03125 0.484375 2.234375 0.484375q1.34375 0 2.03125 -0.5625q0.703125 -0.5625 0.703125 -1.4375q0 -0.765625 -0.765625 -1.203125q-0.75 -0.453125 -2.8125 -0.921875q-1.75 -0.359375 -2.671875 -1.140625q-0.921875 -0.78125 -0.921875 -2.109375q0 -1.46875 1.171875 -2.390625q1.171875 -0.9375 3.140625 -0.9375q2.625 0 4.296875 1.671875l-0.84375 1.25q-0.515625 -0.625 -1.421875 -1.046875q-0.90625 -0.421875 -2.03125 -0.421875q-1.203125 0 -1.890625 0.53125q-0.671875 0.53125 -0.671875 1.296875q0 0.703125 0.765625 1.109375q0.765625 0.40625 2.828125 0.84375q1.75 0.40625 2.65625 1.234375q0.921875 0.828125 0.921875 2.1875q0 1.609375 -1.25 2.5625q-1.25 0.9375 -3.3125 0.9375zm18.742615 0q-2.515625 0 -4.125 -1.703125q-1.609375 -1.71875 -1.609375 -4.390625q0 -2.6875 1.609375 -4.375q1.609375 -1.6875 4.125 -1.6875q2.53125 0 4.125 1.6875q1.609375 1.6875 1.609375 4.375q0 2.671875 -1.609375 4.390625q-1.59375 1.703125 -4.125 1.703125zm0 -1.59375q1.6875 0 2.765625 -1.265625q1.078125 -1.265625 1.078125 -3.234375q0 -1.9375 -1.078125 -3.1875q-1.078125 -1.265625 -2.765625 -1.265625q-1.671875 0 -2.765625 1.25q-1.09375 1.234375 -1.09375 3.203125q0 2.0 1.078125 3.25q1.078125 1.25 2.78125 1.25zm9.165466 1.3125l0 -10.015625l-1.90625 0l0 -1.578125l1.90625 0l0 -0.890625q0 -1.796875 0.90625 -2.78125q0.90625 -0.984375 2.453125 -0.984375q1.46875 0 2.453125 0.890625l-0.734375 1.171875q-0.625 -0.578125 -1.453125 -0.578125q-1.8125 0 -1.8125 2.28125l0 0.890625l2.34375 0l0 1.578125l-2.34375 0l0 10.015625l-1.8125 0zm16.155823 0.28125q-2.953125 0 -4.671875 -1.8125l0.9375 -1.296875q0.5625 0.671875 1.578125 1.171875q1.03125 0.484375 2.234375 0.484375q1.34375 0 2.03125 -0.5625q0.703125 -0.5625 0.703125 -1.4375q0 -0.765625 -0.765625 -1.203125q-0.75 -0.453125 -2.8125 -0.921875q-1.75 -0.359375 -2.671875 -1.140625q-0.921875 -0.78125 -0.921875 -2.109375q0 -1.46875 1.171875 -2.390625q1.171875 -0.9375 3.140625 -0.9375q2.625 0 4.296875 1.671875l-0.84375 1.25q-0.515625 -0.625 -1.421875 -1.046875q-0.90625 -0.421875 -2.03125 -0.421875q-1.203125 0 -1.890625 0.53125q-0.671875 0.53125 -0.671875 1.296875q0 0.703125 0.765625 1.109375q0.765625 0.40625 2.828125 0.84375q1.75 0.40625 2.65625 1.234375q0.921875 0.828125 0.921875 2.1875q0 1.609375 -1.25 2.5625q-1.25 0.9375 -3.3125 0.9375zm12.722473 0q-2.609375 0 -4.265625 -1.703125q-1.640625 -1.703125 -1.640625 -4.390625q0 -2.5625 1.625 -4.3125q1.640625 -1.75 4.09375 -1.75q2.5 0 4.03125 1.734375q1.53125 1.71875 1.53125 4.484375l0 0.453125l-9.375 0q0.09375 1.765625 1.28125 2.890625q1.1875 1.109375 2.890625 1.109375q2.109375 0 3.578125 -1.453125l0.859375 1.171875q-1.78125 1.765625 -4.609375 1.765625zm3.59375 -6.8125q0 -1.609375 -1.0625 -2.734375q-1.046875 -1.125 -2.75 -1.125q-1.609375 0 -2.671875 1.125q-1.0625 1.125 -1.109375 2.734375l7.59375 0zm4.683838 6.53125l0 -11.59375l1.796875 0l0 1.875q1.609375 -2.109375 3.875 -2.109375l0 1.84375l-0.71875 -0.078125q-0.828125 0 -1.8125 0.59375q-0.984375 0.59375 -1.34375 1.265625l0 8.203125l-1.796875 0zm11.013733 0l-4.8125 -11.59375l1.9375 0l3.859375 9.5l3.84375 -9.5l1.96875 0l-4.828125 11.59375l-1.96875 0zm9.556824 -13.25q-0.484375 0 -0.84375 -0.34375q-0.359375 -0.34375 -0.359375 -0.859375q0 -0.5 0.359375 -0.859375q0.359375 -0.359375 0.84375 -0.359375q0.5 0 0.859375 0.359375q0.359375 0.359375 0.359375 0.859375q0 0.515625 -0.359375 0.859375q-0.359375 0.34375 -0.859375 0.34375zm-0.890625 13.25l0 -11.59375l1.796875 0l0 11.59375l-1.796875 0zm10.509338 0.28125q-2.53125 0 -4.15625 -1.71875q-1.625 -1.734375 -1.625 -4.375q0 -2.609375 1.625 -4.328125q1.625 -1.734375 4.15625 -1.734375q2.6875 0 4.25 2.015625l-1.203125 1.09375q-1.09375 -1.5 -2.9375 -1.5q-1.78125 0 -2.90625 1.234375q-1.109375 1.234375 -1.109375 3.21875q0 2.015625 1.09375 3.265625q1.109375 1.234375 2.921875 1.234375q1.8125 0 2.9375 -1.515625l1.203125 1.09375q-1.5625 2.015625 -4.25 2.015625zm12.005005 0q-2.609375 0 -4.265625 -1.703125q-1.640625 -1.703125 -1.640625 -4.390625q0 -2.5625 1.625 -4.3125q1.640625 -1.75 4.09375 -1.75q2.5 0 4.03125 1.734375q1.53125 1.71875 1.53125 4.484375l0 0.453125l-9.375 0q0.09375 1.765625 1.28125 2.890625q1.1875 1.109375 2.890625 1.109375q2.109375 0 3.578125 -1.453125l0.859375 1.171875q-1.78125 1.765625 -4.609375 1.765625zm3.59375 -6.8125q0 -1.609375 -1.0625 -2.734375q-1.046875 -1.125 -2.75 -1.125q-1.609375 0 -2.671875 1.125q-1.0625 1.125 -1.109375 2.734375l7.59375 0z" fill-rule="nonzero"/><path fill="#999999" d="m415.5118 214.72441l293.40158 0l0 -35.362213l70.72443 70.72441l-70.72443 70.72443l0 -35.362213l-293.40158 0z" fill-rule="evenodd"/><path stroke="#202729" stroke-width="1.0" stroke-linejoin="round" stroke-linecap="butt" d="m415.5118 214.72441l293.40158 0l0 -35.362213l70.72443 70.72441l-70.72443 70.72443l0 -35.362213l-293.40158 0z" fill-rule="evenodd"/><path fill="#000000" d="m426.08994 244.12662l0 -16.015625l6.3125 0q3.796875 0 6.140625 2.21875q2.359375 2.203125 2.359375 5.8125q0 3.5625 -2.359375 5.78125q-2.34375 2.203125 -6.140625 2.203125l-6.3125 0zm6.3125 -3.0q2.234375 0 3.625 -1.40625q1.390625 -1.40625 1.390625 -3.578125q0 -2.28125 -1.328125 -3.65625q-1.328125 -1.375 -3.6875 -1.375l-2.90625 0l0 10.015625l2.90625 0zm16.231964 3.28125q-2.6875 0 -4.40625 -1.71875q-1.71875 -1.734375 -1.71875 -4.375q0 -2.640625 1.71875 -4.34375q1.71875 -1.71875 4.40625 -1.71875q2.6875 0 4.40625 1.71875q1.734375 1.703125 1.734375 4.34375q0 2.671875 -1.734375 4.390625q-1.71875 1.703125 -4.40625 1.703125zm0 -2.703125q1.3125 0 2.140625 -0.9375q0.828125 -0.953125 0.828125 -2.453125q0 -1.4375 -0.828125 -2.390625q-0.828125 -0.96875 -2.140625 -0.96875q-1.28125 0 -2.125 0.9375q-0.828125 0.921875 -0.828125 2.421875q0 1.546875 0.828125 2.46875q0.84375 0.921875 2.125 0.921875zm18.572815 2.421875l-2.453125 -7.890625l-2.4375 7.890625l-3.265625 0l-3.53125 -11.59375l3.171875 0l2.15625 7.796875l2.546875 -7.796875l2.703125 0l2.546875 7.796875l2.15625 -7.796875l3.171875 0l-3.53125 11.59375l-3.234375 0zm16.112213 0l0 -7.015625q0 -2.15625 -2.140625 -2.15625q-1.65625 0 -2.640625 1.375l0 7.796875l-3.046875 0l0 -11.59375l3.046875 0l0 1.515625q0.546875 -0.671875 1.578125 -1.234375q1.03125 -0.5625 2.46875 -0.5625q1.921875 0 2.84375 1.0q0.9375 0.984375 0.9375 2.6875l0 8.1875l-3.046875 0zm6.0678406 0l0 -16.015625l3.046875 0l0 16.015625l-3.046875 0zm11.44696 0.28125q-2.6875 0 -4.40625 -1.71875q-1.71875 -1.734375 -1.71875 -4.375q0 -2.640625 1.71875 -4.34375q1.71875 -1.71875 4.40625 -1.71875q2.6875 0 4.40625 1.71875q1.734375 1.703125 1.734375 4.34375q0 2.671875 -1.734375 4.390625q-1.71875 1.703125 -4.40625 1.703125zm0 -2.703125q1.3125 0 2.140625 -0.9375q0.828125 -0.953125 0.828125 -2.453125q0 -1.4375 -0.828125 -2.390625q-0.828125 -0.96875 -2.140625 -0.96875q-1.28125 0 -2.125 0.9375q-0.828125 0.921875 -0.828125 2.421875q0 1.546875 0.828125 2.46875q0.84375 0.921875 2.125 0.921875zm15.354065 2.421875l0 -1.203125q-1.265625 1.484375 -3.671875 1.484375q-1.6718445 0 -2.8593445 -1.0625q-1.171875 -1.0625 -1.171875 -2.765625q0 -1.703125 1.109375 -2.71875q1.125 -1.03125 2.9218445 -1.03125q2.5 0 3.671875 1.421875l0 -1.5625q0 -0.890625 -0.703125 -1.421875q-0.6875 -0.53125 -1.84375 -0.53125q-1.9062195 0 -3.3749695 1.375l-1.15625 -2.046875q2.109375 -1.8125 5.0624695 -1.8125q2.453125 0 3.75 1.140625q1.3125 1.140625 1.3125 3.25l0 7.484375l-3.046875 0zm-2.4375 -1.78125q1.671875 0 2.4375 -1.0l0 -1.4375q-0.765625 -1.015625 -2.4375 -1.015625q-0.921875 0 -1.5625 0.46875q-0.6249695 0.453125 -0.6249695 1.28125q0 0.828125 0.6249695 1.265625q0.640625 0.4375 1.5625 0.4375zm16.485107 1.78125l0 -1.484375q-1.4375 1.765625 -3.578125 1.765625q-2.3125 0 -3.734375 -1.65625q-1.40625 -1.65625 -1.40625 -4.40625q0 -2.734375 1.40625 -4.40625q1.421875 -1.6875 3.734375 -1.6875q2.1875 0 3.578125 1.765625l0 -5.90625l3.0625 0l0 16.015625l-3.0625 0zm-2.640625 -2.421875q0.765625 0 1.5 -0.375q0.75 -0.375 1.140625 -0.953125l0 -4.09375q-0.390625 -0.578125 -1.140625 -0.953125q-0.734375 -0.375 -1.5 -0.375q-1.296875 0 -2.125 0.9375q-0.8125 0.9375 -0.8125 2.453125q0 1.46875 0.796875 2.421875q0.796875 0.9375 2.140625 0.9375z" fill-rule="nonzero"/><path fill="#000000" d="m552.83563 244.12662l-3.015625 -9.3125l-3.03125 9.3125l-1.796875 0l-3.703125 -11.59375l1.875 0l2.828125 9.234375l3.0625 -9.234375l1.53125 0l3.046875 9.234375l2.828125 -9.234375l1.875 0l-3.703125 11.59375l-1.796875 0zm5.787781 0.484375l5.6875 -16.96875l1.421875 0l-5.6875 16.96875l-1.421875 0zm22.342834 -0.484375l0 -1.3125q-1.46875 1.59375 -3.84375 1.59375q-1.75 0 -2.90625 -1.09375q-1.140625 -1.109375 -1.140625 -2.734375q0 -1.6875 1.140625 -2.75q1.140625 -1.078125 2.90625 -1.078125q2.5 0 3.84375 1.59375l0 -2.09375q0 -1.171875 -0.828125 -1.796875q-0.828125 -0.640625 -2.09375 -0.640625q-2.046875 0 -3.5625 1.59375l-0.828125 -1.234375q1.84375 -1.921875 4.625 -1.921875q2.140625 0 3.3125 1.03125q1.171875 1.03125 1.171875 2.875l0 7.96875l-1.796875 0zm-3.1875 -1.015625q2.125 0 3.1875 -1.4375l0 -2.171875q-1.0625 -1.453125 -3.1875 -1.453125q-1.28125 0 -2.078125 0.71875q-0.78125 0.703125 -0.78125 1.828125q0 1.109375 0.78125 1.8125q0.796875 0.703125 2.078125 0.703125zm14.30426 1.296875q-2.46875 0 -3.921875 -2.03125l0 6.171875l-1.796875 0l0 -16.015625l1.796875 0l0 1.734375q0.625 -0.890625 1.65625 -1.453125q1.03125 -0.5625 2.265625 -0.5625q2.328125 0 3.734375 1.640625q1.421875 1.625 1.421875 4.421875q0 2.78125 -1.40625 4.4375q-1.40625 1.65625 -3.75 1.65625zm-0.453125 -1.59375q1.671875 0 2.6875 -1.21875q1.03125 -1.234375 1.03125 -3.28125q0 -1.984375 -1.015625 -3.21875q-1.0 -1.234375 -2.703125 -1.234375q-1.09375 0 -2.046875 0.546875q-0.9375 0.53125 -1.421875 1.296875l0 5.234375q0.484375 0.765625 1.421875 1.328125q0.953125 0.546875 2.046875 0.546875zm14.181091 1.59375q-2.46875 0 -3.921875 -2.03125l0 6.171875l-1.796875 0l0 -16.015625l1.796875 0l0 1.734375q0.625 -0.890625 1.65625 -1.453125q1.03125 -0.5625 2.265625 -0.5625q2.328125 0 3.734375 1.640625q1.421875 1.625 1.421875 4.421875q0 2.78125 -1.40625 4.4375q-1.40625 1.65625 -3.75 1.65625zm-0.453125 -1.59375q1.671875 0 2.6875 -1.21875q1.03125 -1.234375 1.03125 -3.28125q0 -1.984375 -1.015625 -3.21875q-1.0 -1.234375 -2.703125 -1.234375q-1.09375 0 -2.046875 0.546875q-0.9375 0.53125 -1.421875 1.296875l0 5.234375q0.484375 0.765625 1.421875 1.328125q0.953125 0.546875 2.046875 0.546875zm8.462341 1.3125l0 -11.59375l1.796875 0l0 1.875q1.609375 -2.109375 3.875 -2.109375l0 1.84375l-0.71875 -0.078125q-0.828125 0 -1.8125 0.59375q-0.984375 0.59375 -1.34375 1.265625l0 8.203125l-1.796875 0zm12.982483 0.28125q-2.515625 0 -4.125 -1.703125q-1.609375 -1.71875 -1.609375 -4.390625q0 -2.6875 1.609375 -4.375q1.609375 -1.6875 4.125 -1.6875q2.53125 0 4.125 1.6875q1.609375 1.6875 1.609375 4.375q0 2.671875 -1.609375 4.390625q-1.59375 1.703125 -4.125 1.703125zm0 -1.59375q1.6875 0 2.765625 -1.265625q1.078125 -1.265625 1.078125 -3.234375q0 -1.9375 -1.078125 -3.1875q-1.078125 -1.265625 -2.765625 -1.265625q-1.671875 0 -2.765625 1.25q-1.09375 1.234375 -1.09375 3.203125q0 2.0 1.078125 3.25q1.078125 1.25 2.78125 1.25zm11.759216 1.3125l-4.8125 -11.59375l1.9375 0l3.859375 9.5l3.84375 -9.5l1.96875 0l-4.828125 11.59375l-1.96875 0zm15.916199 0l0 -1.3125q-1.46875 1.59375 -3.84375 1.59375q-1.75 0 -2.90625 -1.09375q-1.140625 -1.109375 -1.140625 -2.734375q0 -1.6875 1.140625 -2.75q1.140625 -1.078125 2.90625 -1.078125q2.5 0 3.84375 1.59375l0 -2.09375q0 -1.171875 -0.828125 -1.796875q-0.828125 -0.640625 -2.09375 -0.640625q-2.046875 0 -3.5625 1.59375l-0.828125 -1.234375q1.84375 -1.921875 4.625 -1.921875q2.140625 0 3.3125 1.03125q1.171875 1.03125 1.171875 2.875l0 7.96875l-1.796875 0zm-3.1875 -1.015625q2.125 0 3.1875 -1.4375l0 -2.171875q-1.0625 -1.453125 -3.1875 -1.453125q-1.28125 0 -2.078125 0.71875q-0.78125 0.703125 -0.78125 1.828125q0 1.109375 0.78125 1.8125q0.796875 0.703125 2.078125 0.703125zm8.585449 1.015625l0 -16.015625l1.796875 0l0 16.015625l-1.796875 0zm18.84198 0l0 -1.3125q-1.46875 1.59375 -3.84375 1.59375q-1.75 0 -2.90625 -1.09375q-1.140625 -1.109375 -1.140625 -2.734375q0 -1.6875 1.140625 -2.75q1.140625 -1.078125 2.90625 -1.078125q2.5 0 3.84375 1.59375l0 -2.09375q0 -1.171875 -0.828125 -1.796875q-0.828125 -0.640625 -2.09375 -0.640625q-2.046875 0 -3.5625 1.59375l-0.828125 -1.234375q1.84375 -1.921875 4.625 -1.921875q2.140625 0 3.3125 1.03125q1.171875 1.03125 1.171875 2.875l0 7.96875l-1.796875 0zm-3.1875 -1.015625q2.125 0 3.1875 -1.4375l0 -2.171875q-1.0625 -1.453125 -3.1875 -1.453125q-1.28125 0 -2.078125 0.71875q-0.78125 0.703125 -0.78125 1.828125q0 1.109375 0.78125 1.8125q0.796875 0.703125 2.078125 0.703125zm16.413574 1.015625l0 -7.578125q0 -1.546875 -0.71875 -2.109375q-0.703125 -0.578125 -1.875 -0.578125q-1.0 0 -1.984375 0.546875q-0.96875 0.53125 -1.453125 1.25l0 8.46875l-1.796875 0l0 -11.59375l1.796875 0l0 1.6875q0.75 -0.875 1.84375 -1.421875q1.09375 -0.546875 2.296875 -0.546875q3.6875 0 3.6875 3.734375l0 8.140625l-1.796875 0zm13.802124 0l0 -1.734375q-0.65625 0.890625 -1.671875 1.453125q-1.015625 0.5625 -2.25 0.5625q-2.328125 0 -3.75 -1.65625q-1.40625 -1.65625 -1.40625 -4.40625q0 -2.78125 1.421875 -4.4375q1.4375 -1.65625 3.734375 -1.65625q1.1875 0 2.203125 0.546875q1.015625 0.53125 1.71875 1.484375l0 -6.171875l1.796875 0l0 16.015625l-1.796875 0zm-3.484375 -1.3125q1.078125 0 2.03125 -0.53125q0.96875 -0.53125 1.453125 -1.296875l0 -5.265625q-0.484375 -0.765625 -1.453125 -1.3125q-0.953125 -0.546875 -2.03125 -0.546875q-1.671875 0 -2.703125 1.21875q-1.015625 1.21875 -1.015625 3.265625q0 1.984375 1.0 3.234375q1.015625 1.234375 2.71875 1.234375z" fill-rule="nonzero"/><path fill="#000000" d="m434.71494 273.12662l0 -1.734375q-0.65625 0.890625 -1.671875 1.453125q-1.015625 0.5625 -2.25 0.5625q-2.328125 0 -3.75 -1.65625q-1.40625 -1.65625 -1.40625 -4.40625q0 -2.78125 1.421875 -4.4375q1.4375 -1.65625 3.734375 -1.65625q1.1875 0 2.203125 0.546875q1.015625 0.53125 1.71875 1.484375l0 -6.171875l1.796875 0l0 16.015625l-1.796875 0zm-3.484375 -1.3125q1.078125 0 2.03125 -0.53125q0.96875 -0.53125 1.453125 -1.296875l0 -5.265625q-0.484375 -0.765625 -1.453125 -1.3125q-0.953125 -0.546875 -2.03125 -0.546875q-1.671875 0 -2.703125 1.21875q-1.015625 1.21875 -1.015625 3.265625q0 1.984375 1.0 3.234375q1.015625 1.234375 2.71875 1.234375zm16.128082 1.3125l0 -1.3125q-1.46875 1.59375 -3.84375 1.59375q-1.75 0 -2.90625 -1.09375q-1.140625 -1.109375 -1.140625 -2.734375q0 -1.6875 1.140625 -2.75q1.140625 -1.078125 2.90625 -1.078125q2.5 0 3.84375 1.59375l0 -2.09375q0 -1.171875 -0.828125 -1.796875q-0.828125 -0.640625 -2.09375 -0.640625q-2.046875 0 -3.5625 1.59375l-0.828125 -1.234375q1.84375 -1.921875 4.625 -1.921875q2.140625 0 3.3125 1.03125q1.171875 1.03125 1.171875 2.875l0 7.96875l-1.796875 0zm-3.1875 -1.015625q2.125 0 3.1875 -1.4375l0 -2.171875q-1.0625 -1.453125 -3.1875 -1.453125q-1.28125 0 -2.078125 0.71875q-0.78125 0.703125 -0.78125 1.828125q0 1.109375 0.78125 1.8125q0.796875 0.703125 2.078125 0.703125zm11.52298 1.296875q-2.578125 0 -2.578125 -2.703125l0 -7.59375l-1.921875 0l0 -1.578125l1.921875 0l0 -3.171875l1.796875 0l0 3.171875l2.359375 0l0 1.578125l-2.359375 0l0 7.203125q0 0.65625 0.28125 1.078125q0.296875 0.421875 0.90625 0.421875q0.734375 0 1.21875 -0.484375l0.53125 1.34375q-0.75 0.734375 -2.15625 0.734375zm11.368469 -0.28125l0 -1.3125q-1.46875 1.59375 -3.84375 1.59375q-1.75 0 -2.90625 -1.09375q-1.140625 -1.109375 -1.140625 -2.734375q0 -1.6875 1.140625 -2.75q1.140625 -1.078125 2.90625 -1.078125q2.5 0 3.84375 1.59375l0 -2.09375q0 -1.171875 -0.828125 -1.796875q-0.828125 -0.640625 -2.09375 -0.640625q-2.046875 0 -3.5625 1.59375l-0.828125 -1.234375q1.84375 -1.921875 4.625 -1.921875q2.140625 0 3.3125 1.03125q1.171875 1.03125 1.171875 2.875l0 7.96875l-1.796875 0zm-3.1875 -1.015625q2.125 0 3.1875 -1.4375l0 -2.171875q-1.0625 -1.453125 -3.1875 -1.453125q-1.28125 0 -2.078125 0.71875q-0.78125 0.703125 -0.78125 1.828125q0 1.109375 0.78125 1.8125q0.796875 0.703125 2.078125 0.703125zm22.60559 1.015625l0 -1.625q-0.671875 0.765625 -1.75 1.34375q-1.078125 0.5625 -2.375 0.5625q-3.703125 0 -3.703125 -3.6875l0 -8.1875l1.796875 0l0 7.640625q0 1.359375 0.625 2.0q0.625 0.640625 1.96875 0.640625q1.0625 0 2.0 -0.53125q0.9375 -0.53125 1.4375 -1.234375l0 -8.515625l1.796875 0l0 11.59375l-1.796875 0zm9.0677185 0.28125q-2.953125 0 -4.671875 -1.8125l0.9375 -1.296875q0.5625 0.671875 1.578125 1.171875q1.03125 0.484375 2.234375 0.484375q1.34375 0 2.03125 -0.5625q0.703125 -0.5625 0.703125 -1.4375q0 -0.765625 -0.765625 -1.203125q-0.75 -0.453125 -2.8125 -0.921875q-1.75 -0.359375 -2.671875 -1.140625q-0.921875 -0.78125 -0.921875 -2.109375q0 -1.46875 1.171875 -2.390625q1.171875 -0.9375 3.140625 -0.9375q2.625 0 4.296875 1.671875l-0.84375 1.25q-0.515625 -0.625 -1.421875 -1.046875q-0.90625 -0.421875 -2.03125 -0.421875q-1.203125 0 -1.890625 0.53125q-0.671875 0.53125 -0.671875 1.296875q0 0.703125 0.765625 1.109375q0.765625 0.40625 2.828125 0.84375q1.75 0.40625 2.65625 1.234375q0.921875 0.828125 0.921875 2.1875q0 1.609375 -1.25 2.5625q-1.25 0.9375 -3.3125 0.9375zm12.722473 0q-2.609375 0 -4.265625 -1.703125q-1.640625 -1.703125 -1.640625 -4.390625q0 -2.5625 1.625 -4.3125q1.640625 -1.75 4.09375 -1.75q2.5 0 4.03125 1.734375q1.53125 1.71875 1.53125 4.484375l0 0.453125l-9.375 0q0.09375 1.765625 1.28125 2.890625q1.1875 1.109375 2.890625 1.109375q2.109375 0 3.578125 -1.453125l0.859375 1.171875q-1.78125 1.765625 -4.609375 1.765625zm3.59375 -6.8125q0 -1.609375 -1.0625 -2.734375q-1.046875 -1.125 -2.75 -1.125q-1.609375 0 -2.671875 1.125q-1.0625 1.125 -1.109375 2.734375l7.59375 0zm18.125793 6.53125l0 -1.3125q-1.46875 1.59375 -3.84375 1.59375q-1.75 0 -2.90625 -1.09375q-1.140625 -1.109375 -1.140625 -2.734375q0 -1.6875 1.140625 -2.75q1.140625 -1.078125 2.90625 -1.078125q2.5 0 3.84375 1.59375l0 -2.09375q0 -1.171875 -0.828125 -1.796875q-0.828125 -0.640625 -2.09375 -0.640625q-2.046875 0 -3.5625 1.59375l-0.828125 -1.234375q1.84375 -1.921875 4.625 -1.921875q2.140625 0 3.3125 1.03125q1.171875 1.03125 1.171875 2.875l0 7.96875l-1.796875 0zm-3.1875 -1.015625q2.125 0 3.1875 -1.4375l0 -2.171875q-1.0625 -1.453125 -3.1875 -1.453125q-1.28125 0 -2.078125 0.71875q-0.78125 0.703125 -0.78125 1.828125q0 1.109375 0.78125 1.8125q0.796875 0.703125 2.078125 0.703125zm13.24176 5.71875q-1.484375 0 -2.5625 -0.359375q-1.078125 -0.359375 -2.109375 -1.375l0.90625 -1.34375q0.71875 0.875 1.609375 1.234375q0.90625 0.359375 2.15625 0.359375q1.78125 0 2.75 -0.921875q0.96875 -0.921875 0.96875 -2.5625l0 -1.65625q-0.625 0.890625 -1.640625 1.484375q-1.015625 0.578125 -2.25 0.578125q-2.34375 0 -3.75 -1.65625q-1.40625 -1.65625 -1.40625 -4.34375q0 -2.78125 1.421875 -4.390625q1.4375 -1.625 3.734375 -1.625q2.40625 0 3.890625 2.03125l0 -1.75l1.796875 0l0 11.25q0 2.453125 -1.4375 3.75q-1.4375 1.296875 -4.078125 1.296875zm0.265625 -6.140625q0.984375 0 1.953125 -0.53125q0.96875 -0.53125 1.5 -1.375l0 -5.0625q-0.53125 -0.828125 -1.515625 -1.34375q-0.96875 -0.515625 -1.9375 -0.515625q-1.703125 0 -2.71875 1.21875q-1.0 1.21875 -1.0 3.1875q0 2.0 1.03125 3.21875q1.03125 1.203125 2.6875 1.203125zm8.854065 1.4375l0 -11.59375l1.796875 0l0 1.875q1.609375 -2.109375 3.875 -2.109375l0 1.84375l-0.71875 -0.078125q-0.828125 0 -1.8125 0.59375q-0.984375 0.59375 -1.34375 1.265625l0 8.203125l-1.796875 0zm13.154358 0.28125q-2.609375 0 -4.265625 -1.703125q-1.640625 -1.703125 -1.640625 -4.390625q0 -2.5625 1.625 -4.3125q1.640625 -1.75 4.09375 -1.75q2.5 0 4.03125 1.734375q1.53125 1.71875 1.53125 4.484375l0 0.453125l-9.375 0q0.09375 1.765625 1.28125 2.890625q1.1875 1.109375 2.890625 1.109375q2.109375 0 3.578125 -1.453125l0.859375 1.171875q-1.78125 1.765625 -4.609375 1.765625zm3.59375 -6.8125q0 -1.609375 -1.0625 -2.734375q-1.046875 -1.125 -2.75 -1.125q-1.609375 0 -2.671875 1.125q-1.0625 1.125 -1.109375 2.734375l7.59375 0zm9.918213 6.8125q-2.609375 0 -4.265625 -1.703125q-1.640625 -1.703125 -1.640625 -4.390625q0 -2.5625 1.625 -4.3125q1.640625 -1.75 4.09375 -1.75q2.5 0 4.03125 1.734375q1.53125 1.71875 1.53125 4.484375l0 0.453125l-9.375 0q0.09375 1.765625 1.28125 2.890625q1.1875 1.109375 2.890625 1.109375q2.109375 0 3.578125 -1.453125l0.859375 1.171875q-1.78125 1.765625 -4.609375 1.765625zm3.59375 -6.8125q0 -1.609375 -1.0625 -2.734375q-1.046875 -1.125 -2.75 -1.125q-1.609375 0 -2.671875 1.125q-1.0625 1.125 -1.109375 2.734375l7.59375 0zm18.683838 6.53125l0 -7.875q0 -2.390625 -2.140625 -2.390625q-0.90625 0 -1.765625 0.546875q-0.84375 0.53125 -1.3125 1.21875l0 8.5l-1.796875 0l0 -7.875q0 -2.390625 -2.140625 -2.390625q-0.875 0 -1.71875 0.546875q-0.84375 0.546875 -1.328125 1.25l0 8.46875l-1.796875 0l0 -11.59375l1.796875 0l0 1.6875q0.421875 -0.703125 1.546875 -1.328125q1.125 -0.640625 2.203125 -0.640625q1.34375 0 2.09375 0.625q0.765625 0.625 1.03125 1.53125q0.59375 -0.9375 1.6875 -1.546875q1.109375 -0.609375 2.203125 -0.609375q3.234375 0 3.234375 3.5l0 8.375l-1.796875 0zm10.626282 0.28125q-2.609375 0 -4.265625 -1.703125q-1.640625 -1.703125 -1.640625 -4.390625q0 -2.5625 1.625 -4.3125q1.640625 -1.75 4.09375 -1.75q2.5 0 4.03125 1.734375q1.53125 1.71875 1.53125 4.484375l0 0.453125l-9.375 0q0.09375 1.765625 1.28125 2.890625q1.1875 1.109375 2.890625 1.109375q2.109375 0 3.578125 -1.453125l0.859375 1.171875q-1.78125 1.765625 -4.609375 1.765625zm3.59375 -6.8125q0 -1.609375 -1.0625 -2.734375q-1.046875 -1.125 -2.75 -1.125q-1.609375 0 -2.671875 1.125q-1.0625 1.125 -1.109375 2.734375l7.59375 0zm12.511963 6.53125l0 -7.578125q0 -1.546875 -0.71875 -2.109375q-0.703125 -0.578125 -1.875 -0.578125q-1.0 0 -1.984375 0.546875q-0.96875 0.53125 -1.453125 1.25l0 8.46875l-1.796875 0l0 -11.59375l1.796875 0l0 1.6875q0.75 -0.875 1.84375 -1.421875q1.09375 -0.546875 2.296875 -0.546875q3.6875 0 3.6875 3.734375l0 8.140625l-1.796875 0zm8.333374 0.28125q-2.578125 0 -2.578125 -2.703125l0 -7.59375l-1.921875 0l0 -1.578125l1.921875 0l0 -3.171875l1.796875 0l0 3.171875l2.359375 0l0 1.578125l-2.359375 0l0 7.203125q0 0.65625 0.28125 1.078125q0.296875 0.421875 0.90625 0.421875q0.734375 0 1.21875 -0.484375l0.53125 1.34375q-0.75 0.734375 -2.15625 0.734375z" fill-rule="nonzero"/><path fill="#666666" d="m415.5118 302.7244l293.40158 0l0 -35.362183l70.72443 70.724396l-70.72443 70.72443l0 -35.362213l-293.40158 0z" fill-rule="evenodd"/><path stroke="#202729" stroke-width="1.0" stroke-linejoin="round" stroke-linecap="butt" d="m415.5118 302.7244l293.40158 0l0 -35.362183l70.72443 70.724396l-70.72443 70.72443l0 -35.362213l-293.40158 0z" fill-rule="evenodd"/><path fill="#000000" d="m426.08994 332.12662l0 -16.015625l7.5 0q2.4375 0 3.90625 1.4375q1.46875 1.421875 1.46875 3.734375q0 2.28125 -1.5 3.71875q-1.5 1.4375 -3.875 1.4375l-4.09375 0l0 5.6875l-3.40625 0zm7.03125 -8.6875q1.015625 0 1.6875 -0.578125q0.671875 -0.578125 0.671875 -1.578125q0 -1.015625 -0.671875 -1.59375q-0.671875 -0.578125 -1.6875 -0.578125l-3.625 0l0 4.328125l3.625 0zm7.882202 8.6875l0 -11.59375l3.046875 0l0 1.578125q0.625 -0.765625 1.609375 -1.3125q1.0 -0.546875 2.078125 -0.546875l0 2.96875l-0.828125 -0.0625q-0.828125 0 -1.65625 0.390625q-0.828125 0.375 -1.203125 0.921875l0 7.65625l-3.046875 0zm14.014984 0.28125q-2.6875 0 -4.40625 -1.71875q-1.71875 -1.734375 -1.71875 -4.375q0 -2.640625 1.71875 -4.34375q1.71875 -1.71875 4.40625 -1.71875q2.6875 0 4.40625 1.71875q1.734375 1.703125 1.734375 4.34375q0 2.671875 -1.734375 4.390625q-1.71875 1.703125 -4.40625 1.703125zm0 -2.703125q1.3125 0 2.140625 -0.9375q0.828125 -0.953125 0.828125 -2.453125q0 -1.4375 -0.828125 -2.390625q-0.828125 -0.96875 -2.140625 -0.96875q-1.28125 0 -2.125 0.9375q-0.828125 0.921875 -0.828125 2.421875q0 1.546875 0.828125 2.46875q0.84375 0.921875 2.125 0.921875zm12.291565 2.703125q-3.296875 0 -3.296875 -3.15625l0 -6.046875l-1.921875 0l0 -2.671875l1.921875 0l0 -3.171875l3.078125 0l0 3.171875l2.34375 0l0 2.671875l-2.34375 0l0 5.21875q0 0.5625 0.265625 0.921875q0.28125 0.359375 0.78125 0.359375q0.71875 0 1.0625 -0.34375l0.640625 2.3125q-0.78125 0.734375 -2.53125 0.734375zm9.658844 0q-2.734375 0 -4.46875 -1.6875q-1.71875 -1.6875 -1.71875 -4.40625q0 -2.59375 1.71875 -4.328125q1.71875 -1.734375 4.28125 -1.734375q2.578125 0 4.1875 1.765625q1.625 1.75 1.625 4.609375l0 0.671875l-8.625 0q0.15625 1.109375 1.0 1.90625q0.859375 0.78125 2.34375 0.78125q0.71875 0 1.609375 -0.296875q0.890625 -0.296875 1.484375 -0.84375l1.34375 1.96875q-0.859375 0.78125 -2.140625 1.1875q-1.265625 0.40625 -2.640625 0.40625zm2.671875 -7.171875q-0.078125 -1.15625 -0.875 -1.859375q-0.78125 -0.703125 -1.984375 -0.703125q-1.203125 0 -1.96875 0.734375q-0.765625 0.734375 -0.890625 1.828125l5.71875 0zm10.553223 7.171875q-2.734375 0 -4.4375 -1.71875q-1.703125 -1.734375 -1.703125 -4.375q0 -2.609375 1.703125 -4.328125q1.703125 -1.734375 4.4375 -1.734375q1.78125 0 2.890625 0.65625q1.125 0.640625 1.703125 1.421875l-2.0 1.875q-0.84375 -1.25 -2.4375 -1.25q-1.40625 0 -2.28125 0.9375q-0.875 0.921875 -0.875 2.421875q0 1.515625 0.875 2.453125q0.875 0.9375 2.28125 0.9375q1.546875 0 2.4375 -1.25l2.0 1.84375q-0.578125 0.8125 -1.703125 1.46875q-1.109375 0.640625 -2.890625 0.640625zm10.475952 0q-3.296875 0 -3.296875 -3.15625l0 -6.046875l-1.921875 0l0 -2.671875l1.921875 0l0 -3.171875l3.078125 0l0 3.171875l2.34375 0l0 2.671875l-2.34375 0l0 5.21875q0 0.5625 0.265625 0.921875q0.28125 0.359375 0.78125 0.359375q0.71875 0 1.0625 -0.34375l0.640625 2.3125q-0.78125 0.734375 -2.53125 0.734375zm9.658844 0q-2.734375 0 -4.46875 -1.6875q-1.71875 -1.6875 -1.71875 -4.40625q0 -2.59375 1.71875 -4.328125q1.71875 -1.734375 4.28125 -1.734375q2.578125 0 4.1875 1.765625q1.625 1.75 1.625 4.609375l0 0.671875l-8.625 0q0.15625 1.109375 1.0 1.90625q0.859375 0.78125 2.34375 0.78125q0.71875 0 1.609375 -0.296875q0.890625 -0.296875 1.484375 -0.84375l1.34375 1.96875q-0.859375 0.78125 -2.140625 1.1875q-1.265625 0.40625 -2.640625 0.40625zm2.671875 -7.171875q-0.078125 -1.15625 -0.875 -1.859375q-0.78125 -0.703125 -1.984375 -0.703125q-1.203125 0 -1.96875 0.734375q-0.765625 0.734375 -0.890625 1.828125l5.71875 0zm13.131348 6.890625l0 -1.484375q-1.4375 1.765625 -3.578125 1.765625q-2.3125 0 -3.734375 -1.65625q-1.40625 -1.65625 -1.40625 -4.40625q0 -2.734375 1.40625 -4.40625q1.421875 -1.6875 3.734375 -1.6875q2.1875 0 3.578125 1.765625l0 -5.90625l3.0625 0l0 16.015625l-3.0625 0zm-2.640625 -2.421875q0.765625 0 1.5 -0.375q0.75 -0.375 1.140625 -0.953125l0 -4.09375q-0.390625 -0.578125 -1.140625 -0.953125q-0.734375 -0.375 -1.5 -0.375q-1.296875 0 -2.125 0.9375q-0.8125 0.9375 -0.8125 2.453125q0 1.46875 0.796875 2.421875q0.796875 0.9375 2.140625 0.9375zm21.832947 2.421875l0 -1.203125q-1.265625 1.484375 -3.671875 1.484375q-1.671875 0 -2.859375 -1.0625q-1.171875 -1.0625 -1.171875 -2.765625q0 -1.703125 1.109375 -2.71875q1.125 -1.03125 2.921875 -1.03125q2.5 0 3.671875 1.421875l0 -1.5625q0 -0.890625 -0.703125 -1.421875q-0.6875 -0.53125 -1.84375 -0.53125q-1.90625 0 -3.375 1.375l-1.15625 -2.046875q2.109375 -1.8125 5.0625 -1.8125q2.453125 0 3.75 1.140625q1.3125 1.140625 1.3125 3.25l0 7.484375l-3.046875 0zm-2.4375 -1.78125q1.671875 0 2.4375 -1.0l0 -1.4375q-0.765625 -1.015625 -2.4375 -1.015625q-0.921875 0 -1.5625 0.46875q-0.625 0.453125 -0.625 1.28125q0 0.828125 0.625 1.265625q0.640625 0.4375 1.5625 0.4375zm16.344482 1.78125l0 -7.015625q0 -2.15625 -2.140625 -2.15625q-1.65625 0 -2.640625 1.375l0 7.796875l-3.046875 0l0 -11.59375l3.046875 0l0 1.515625q0.546875 -0.671875 1.578125 -1.234375q1.03125 -0.5625 2.46875 -0.5625q1.921875 0 2.84375 1.0q0.9375 0.984375 0.9375 2.6875l0 8.1875l-3.046875 0zm13.020935 0l0 -1.203125q-1.265625 1.484375 -3.671875 1.484375q-1.671875 0 -2.859375 -1.0625q-1.171875 -1.0625 -1.171875 -2.765625q0 -1.703125 1.109375 -2.71875q1.125 -1.03125 2.921875 -1.03125q2.5 0 3.671875 1.421875l0 -1.5625q0 -0.890625 -0.703125 -1.421875q-0.6875 -0.53125 -1.84375 -0.53125q-1.90625 0 -3.375 1.375l-1.15625 -2.046875q2.109375 -1.8125 5.0625 -1.8125q2.453125 0 3.75 1.140625q1.3125 1.140625 1.3125 3.25l0 7.484375l-3.046875 0zm-2.4375 -1.78125q1.671875 0 2.4375 -1.0l0 -1.4375q-0.765625 -1.015625 -2.4375 -1.015625q-0.921875 0 -1.5625 0.46875q-0.625 0.453125 -0.625 1.28125q0 0.828125 0.625 1.265625q0.640625 0.4375 1.5625 0.4375zm8.516357 1.78125l0 -16.015625l3.046875 0l0 16.015625l-3.046875 0zm6.1188354 1.796875q0.375 0.1875 0.953125 0.1875q1.234375 0 1.609375 -0.828125l0.4375 -0.984375l-4.703125 -11.765625l3.265625 0l3.015625 8.0625l3.03125 -8.0625l3.28125 0l-5.4375 13.484375q-0.65625 1.640625 -1.78125 2.21875q-1.125 0.578125 -2.625 0.59375q-0.828125 0 -1.5 -0.171875l0.453125 -2.734375zm16.43695 -1.515625q-1.515625 0 -2.890625 -0.46875q-1.375 -0.484375 -2.296875 -1.328125l1.328125 -2.125q0.6875 0.640625 1.84375 1.109375q1.15625 0.46875 2.15625 0.46875q1.953125 0 1.953125 -1.25q0 -0.484375 -0.515625 -0.71875q-0.515625 -0.234375 -1.265625 -0.40625l-1.65625 -0.34375q-3.453125 -0.734375 -3.453125 -3.453125q0 -1.609375 1.328125 -2.625q1.328125 -1.015625 3.421875 -1.015625q2.71875 0 4.671875 1.578125l-1.21875 2.09375q-0.53125 -0.5625 -1.4375 -0.953125q-0.90625 -0.390625 -2.0 -0.390625q-0.828125 0 -1.328125 0.34375q-0.484375 0.328125 -0.484375 0.796875q0 0.4375 0.5 0.65625q0.5 0.21875 1.265625 0.375q0.78125 0.15625 1.65625 0.359375q0.890625 0.203125 1.65625 0.609375q0.78125 0.40625 1.28125 1.109375q0.5 0.6875 0.5 1.859375q0 1.6875 -1.375 2.703125q-1.359375 1.015625 -3.640625 1.015625zm8.791748 -13.125q-0.75 0 -1.296875 -0.515625q-0.53125 -0.53125 -0.53125 -1.296875q0 -0.78125 0.53125 -1.296875q0.546875 -0.515625 1.296875 -0.515625q0.765625 0 1.28125 0.515625q0.53125 0.515625 0.53125 1.296875q0 0.765625 -0.53125 1.296875q-0.515625 0.515625 -1.28125 0.515625zm-1.515625 12.84375l0 -11.59375l3.046875 0l0 11.59375l-3.046875 0zm10.243835 0.28125q-1.515625 0 -2.890625 -0.46875q-1.375 -0.484375 -2.296875 -1.328125l1.328125 -2.125q0.6875 0.640625 1.84375 1.109375q1.15625 0.46875 2.15625 0.46875q1.953125 0 1.953125 -1.25q0 -0.484375 -0.515625 -0.71875q-0.515625 -0.234375 -1.265625 -0.40625l-1.65625 -0.34375q-3.453125 -0.734375 -3.453125 -3.453125q0 -1.609375 1.328125 -2.625q1.328125 -1.015625 3.421875 -1.015625q2.71875 0 4.671875 1.578125l-1.21875 2.09375q-0.53125 -0.5625 -1.4375 -0.953125q-0.90625 -0.390625 -2.0 -0.390625q-0.828125 0 -1.328125 0.34375q-0.484375 0.328125 -0.484375 0.796875q0 0.4375 0.5 0.65625q0.5 0.21875 1.265625 0.375q0.78125 0.15625 1.65625 0.359375q0.890625 0.203125 1.65625 0.609375q0.78125 0.40625 1.28125 1.109375q0.5 0.6875 0.5 1.859375q0 1.6875 -1.375 2.703125q-1.359375 1.015625 -3.640625 1.015625z" fill-rule="nonzero"/><path fill="#000000" d="m635.20184 332.12662l-4.8125 -11.59375l1.9375 0l3.859375 9.5l3.84375 -9.5l1.96875 0l-4.828125 11.59375l-1.96875 0zm9.556824 -13.25q-0.484375 0 -0.84375 -0.34375q-0.359375 -0.34375 -0.359375 -0.859375q0 -0.5 0.359375 -0.859375q0.359375 -0.359375 0.84375 -0.359375q0.5 0 0.859375 0.359375q0.359375 0.359375 0.359375 0.859375q0 0.515625 -0.359375 0.859375q-0.359375 0.34375 -0.859375 0.34375zm-0.890625 13.25l0 -11.59375l1.796875 0l0 11.59375l-1.796875 0zm12.649963 0l0 -1.3125q-1.46875 1.59375 -3.84375 1.59375q-1.75 0 -2.90625 -1.09375q-1.140625 -1.109375 -1.140625 -2.734375q0 -1.6875 1.140625 -2.75q1.140625 -1.078125 2.90625 -1.078125q2.5 0 3.84375 1.59375l0 -2.09375q0 -1.171875 -0.828125 -1.796875q-0.828125 -0.640625 -2.09375 -0.640625q-2.046875 0 -3.5625 1.59375l-0.828125 -1.234375q1.84375 -1.921875 4.625 -1.921875q2.140625 0 3.3125 1.03125q1.171875 1.03125 1.171875 2.875l0 7.96875l-1.796875 0zm-3.1875 -1.015625q2.125 0 3.1875 -1.4375l0 -2.171875q-1.0625 -1.453125 -3.1875 -1.453125q-1.28125 0 -2.078125 0.71875q-0.78125 0.703125 -0.78125 1.828125q0 1.109375 0.78125 1.8125q0.796875 0.703125 2.078125 0.703125z" fill-rule="nonzero"/><path fill="#000000" d="m429.98056 361.40787q-2.953125 0 -4.671875 -1.8125l0.9375 -1.296875q0.5625 0.671875 1.578125 1.171875q1.03125 0.484375 2.234375 0.484375q1.34375 0 2.03125 -0.5625q0.703125 -0.5625 0.703125 -1.4375q0 -0.765625 -0.765625 -1.203125q-0.75 -0.453125 -2.8125 -0.921875q-1.75 -0.359375 -2.671875 -1.140625q-0.921875 -0.78125 -0.921875 -2.109375q0 -1.46875 1.171875 -2.390625q1.171875 -0.9375 3.140625 -0.9375q2.625 0 4.296875 1.671875l-0.84375 1.25q-0.515625 -0.625 -1.421875 -1.046875q-0.90625 -0.421875 -2.03125 -0.421875q-1.203125 0 -1.890625 0.53125q-0.671875 0.53125 -0.671875 1.296875q0 0.703125 0.765625 1.109375q0.765625 0.40625 2.828125 0.84375q1.75 0.40625 2.65625 1.234375q0.921875 0.828125 0.921875 2.1875q0 1.609375 -1.25 2.5625q-1.25 0.9375 -3.3125 0.9375zm12.722473 0q-2.609375 0 -4.265625 -1.703125q-1.640625 -1.703125 -1.640625 -4.390625q0 -2.5625 1.625 -4.3125q1.640625 -1.75 4.09375 -1.75q2.5 0 4.03125 1.734375q1.53125 1.71875 1.53125 4.484375l0 0.453125l-9.375 0q0.09375 1.765625 1.28125 2.890625q1.1875 1.109375 2.890625 1.109375q2.109375 0 3.578125 -1.453125l0.859375 1.171875q-1.78125 1.765625 -4.609375 1.765625zm3.59375 -6.8125q0 -1.609375 -1.0625 -2.734375q-1.046875 -1.125 -2.75 -1.125q-1.609375 0 -2.671875 1.125q-1.0625 1.125 -1.109375 2.734375l7.59375 0zm9.793213 6.8125q-2.53125 0 -4.15625 -1.71875q-1.625 -1.734375 -1.625 -4.375q0 -2.609375 1.625 -4.328125q1.625 -1.734375 4.15625 -1.734375q2.6875 0 4.25 2.015625l-1.203125 1.09375q-1.09375 -1.5 -2.9375 -1.5q-1.78125 0 -2.90625 1.234375q-1.109375 1.234375 -1.109375 3.21875q0 2.015625 1.09375 3.265625q1.109375 1.234375 2.921875 1.234375q1.8125 0 2.9375 -1.515625l1.203125 1.09375q-1.5625 2.015625 -4.25 2.015625zm14.598724 -0.28125l0 -1.625q-0.671875 0.765625 -1.75 1.34375q-1.078125 0.5625 -2.375 0.5625q-3.703125 0 -3.703125 -3.6875l0 -8.1875l1.796875 0l0 7.640625q0 1.359375 0.625 2.0q0.625 0.640625 1.96875 0.640625q1.0625 0 2.0 -0.53125q0.9375 -0.53125 1.4375 -1.234375l0 -8.515625l1.796875 0l0 11.59375l-1.796875 0zm5.3958435 0l0 -11.59375l1.796875 0l0 1.875q1.609375 -2.109375 3.875 -2.109375l0 1.84375l-0.71875 -0.078125q-0.828125 0 -1.8125 0.59375q-0.984375 0.59375 -1.34375 1.265625l0 8.203125l-1.796875 0zm13.154358 0.28125q-2.609375 0 -4.265625 -1.703125q-1.640625 -1.703125 -1.640625 -4.390625q0 -2.5625 1.625 -4.3125q1.640625 -1.75 4.09375 -1.75q2.5 0 4.03125 1.734375q1.53125 1.71875 1.53125 4.484375l0 0.453125l-9.375 0q0.09375 1.765625 1.28125 2.890625q1.1875 1.109375 2.890625 1.109375q2.109375 0 3.578125 -1.453125l0.859375 1.171875q-1.78125 1.765625 -4.609375 1.765625zm3.59375 -6.8125q0 -1.609375 -1.0625 -2.734375q-1.046875 -1.125 -2.75 -1.125q-1.609375 0 -2.671875 1.125q-1.0625 1.125 -1.109375 2.734375l7.59375 0zm19.282074 6.53125l0 -1.734375q-0.65625 0.890625 -1.671875 1.453125q-1.015625 0.5625 -2.25 0.5625q-2.328125 0 -3.75 -1.65625q-1.40625 -1.65625 -1.40625 -4.40625q0 -2.78125 1.421875 -4.4375q1.4375 -1.65625 3.734375 -1.65625q1.1875 0 2.203125 0.546875q1.015625 0.53125 1.71875 1.484375l0 -6.171875l1.796875 0l0 16.015625l-1.796875 0zm-3.484375 -1.3125q1.078125 0 2.03125 -0.53125q0.96875 -0.53125 1.453125 -1.296875l0 -5.265625q-0.484375 -0.765625 -1.453125 -1.3125q-0.953125 -0.546875 -2.03125 -0.546875q-1.671875 0 -2.703125 1.21875q-1.015625 1.21875 -1.015625 3.265625q0 1.984375 1.0 3.234375q1.015625 1.234375 2.71875 1.234375zm16.128052 1.3125l0 -1.3125q-1.46875 1.59375 -3.84375 1.59375q-1.75 0 -2.90625 -1.09375q-1.140625 -1.109375 -1.140625 -2.734375q0 -1.6875 1.140625 -2.75q1.140625 -1.078125 2.90625 -1.078125q2.5 0 3.84375 1.59375l0 -2.09375q0 -1.171875 -0.828125 -1.796875q-0.828125 -0.640625 -2.09375 -0.640625q-2.046875 0 -3.5625 1.59375l-0.828125 -1.234375q1.84375 -1.921875 4.625 -1.921875q2.140625 0 3.3125 1.03125q1.171875 1.03125 1.171875 2.875l0 7.96875l-1.796875 0zm-3.1875 -1.015625q2.125 0 3.1875 -1.4375l0 -2.171875q-1.0625 -1.453125 -3.1875 -1.453125q-1.28125 0 -2.078125 0.71875q-0.78125 0.703125 -0.78125 1.828125q0 1.109375 0.78125 1.8125q0.796875 0.703125 2.078125 0.703125zm11.52301 1.296875q-2.578125 0 -2.578125 -2.703125l0 -7.59375l-1.921875 0l0 -1.578125l1.921875 0l0 -3.171875l1.796875 0l0 3.171875l2.359375 0l0 1.578125l-2.359375 0l0 7.203125q0 0.65625 0.28125 1.078125q0.296875 0.421875 0.90625 0.421875q0.734375 0 1.21875 -0.484375l0.53125 1.34375q-0.75 0.734375 -2.15625 0.734375zm11.368469 -0.28125l0 -1.3125q-1.46875 1.59375 -3.84375 1.59375q-1.75 0 -2.90625 -1.09375q-1.140625 -1.109375 -1.140625 -2.734375q0 -1.6875 1.140625 -2.75q1.140625 -1.078125 2.90625 -1.078125q2.5 0 3.84375 1.59375l0 -2.09375q0 -1.171875 -0.828125 -1.796875q-0.828125 -0.640625 -2.09375 -0.640625q-2.046875 0 -3.5625 1.59375l-0.828125 -1.234375q1.84375 -1.921875 4.625 -1.921875q2.140625 0 3.3125 1.03125q1.171875 1.03125 1.171875 2.875l0 7.96875l-1.796875 0zm-3.1875 -1.015625q2.125 0 3.1875 -1.4375l0 -2.171875q-1.0625 -1.453125 -3.1875 -1.453125q-1.28125 0 -2.078125 0.71875q-0.78125 0.703125 -0.78125 1.828125q0 1.109375 0.78125 1.8125q0.796875 0.703125 2.078125 0.703125zm20.01184 1.296875q-2.609375 0 -4.265625 -1.703125q-1.640625 -1.703125 -1.640625 -4.390625q0 -2.5625 1.625 -4.3125q1.640625 -1.75 4.09375 -1.75q2.5 0 4.03125 1.734375q1.53125 1.71875 1.53125 4.484375l0 0.453125l-9.375 0q0.09375 1.765625 1.28125 2.890625q1.1875 1.109375 2.890625 1.109375q2.109375 0 3.578125 -1.453125l0.859375 1.171875q-1.78125 1.765625 -4.609375 1.765625zm3.59375 -6.8125q0 -1.609375 -1.0625 -2.734375q-1.046875 -1.125 -2.75 -1.125q-1.609375 0 -2.671875 1.125q-1.0625 1.125 -1.109375 2.734375l7.59375 0zm12.511963 6.53125l0 -7.578125q0 -1.546875 -0.71875 -2.109375q-0.703125 -0.578125 -1.875 -0.578125q-1.0 0 -1.984375 0.546875q-0.96875 0.53125 -1.453125 1.25l0 8.46875l-1.796875 0l0 -11.59375l1.796875 0l0 1.6875q0.75 -0.875 1.84375 -1.421875q1.09375 -0.546875 2.296875 -0.546875q3.6875 0 3.6875 3.734375l0 8.140625l-1.796875 0zm10.505188 0.28125q-2.53125 0 -4.15625 -1.71875q-1.625 -1.734375 -1.625 -4.375q0 -2.609375 1.625 -4.328125q1.625 -1.734375 4.15625 -1.734375q2.6875 0 4.25 2.015625l-1.203125 1.09375q-1.09375 -1.5 -2.9375 -1.5q-1.78125 0 -2.90625 1.234375q-1.109375 1.234375 -1.109375 3.21875q0 2.015625 1.09375 3.265625q1.109375 1.234375 2.921875 1.234375q1.8125 0 2.9375 -1.515625l1.203125 1.09375q-1.5625 2.015625 -4.25 2.015625zm6.770569 -0.28125l0 -16.015625l1.796875 0l0 16.015625l-1.796875 0zm12.650024 0l0 -1.3125q-1.46875 1.59375 -3.84375 1.59375q-1.75 0 -2.90625 -1.09375q-1.140625 -1.109375 -1.140625 -2.734375q0 -1.6875 1.140625 -2.75q1.140625 -1.078125 2.90625 -1.078125q2.5 0 3.84375 1.59375l0 -2.09375q0 -1.171875 -0.828125 -1.796875q-0.828125 -0.640625 -2.09375 -0.640625q-2.046875 0 -3.5625 1.59375l-0.828125 -1.234375q1.84375 -1.921875 4.625 -1.921875q2.140625 0 3.3125 1.03125q1.171875 1.03125 1.171875 2.875l0 7.96875l-1.796875 0zm-3.1875 -1.015625q2.125 0 3.1875 -1.4375l0 -2.171875q-1.0625 -1.453125 -3.1875 -1.453125q-1.28125 0 -2.078125 0.71875q-0.78125 0.703125 -0.78125 1.828125q0 1.109375 0.78125 1.8125q0.796875 0.703125 2.078125 0.703125zm11.679199 1.015625l-4.8125 -11.59375l1.9375 0l3.859375 9.5l3.84375 -9.5l1.96875 0l-4.828125 11.59375l-1.96875 0zm13.900574 0.28125q-2.609375 0 -4.265625 -1.703125q-1.640625 -1.703125 -1.640625 -4.390625q0 -2.5625 1.625 -4.3125q1.640625 -1.75 4.09375 -1.75q2.5 0 4.03125 1.734375q1.53125 1.71875 1.53125 4.484375l0 0.453125l-9.375 0q0.09375 1.765625 1.28125 2.890625q1.1875 1.109375 2.890625 1.109375q2.109375 0 3.578125 -1.453125l0.859375 1.171875q-1.78125 1.765625 -4.609375 1.765625zm3.59375 -6.8125q0 -1.609375 -1.0625 -2.734375q-1.046875 -1.125 -2.75 -1.125q-1.609375 0 -2.671875 1.125q-1.0625 1.125 -1.109375 2.734375l7.59375 0z" fill-rule="nonzero"/></g></svg>